<?xml version="1.0" encoding="UTF-8" ?>
<!DOCTYPE svg PUBLIC "-//W3C//DTD SVG 1.1//EN" "http://www.w3.org/Graphics/SVG/1.1/DTD/svg11.dtd">
<svg width="1000pt" height="1000pt" viewBox="0 0 1000 1000" version="1.1" xmlns="http://www.w3.org/2000/svg">
<path fill="#fefefe" d=" M 0.00 0.00 L 1000.00 0.00 L 1000.00 1000.00 L 0.00 1000.00 L 0.00 0.00 Z" />
<path fill="#065498" d=" M 461.47 1.74 C 468.32 1.43 475.16 0.83 482.01 0.59 C 491.33 1.12 500.66 1.06 509.99 0.96 C 520.67 0.21 531.36 1.31 542.00 2.11 C 627.44 9.09 710.85 38.93 781.47 87.52 C 842.12 129.00 893.50 183.96 930.80 247.28 C 971.35 315.89 995.06 394.40 998.98 474.01 C 999.97 482.66 998.60 491.33 998.99 500.00 C 998.61 509.00 1000.06 518.02 998.92 526.99 C 994.29 617.89 963.74 707.23 912.05 782.12 C 868.01 846.27 808.88 900.00 740.76 937.64 C 672.74 975.38 595.71 996.65 517.99 999.37 C 506.34 998.85 494.66 998.77 483.02 999.38 C 428.87 997.60 375.00 986.87 324.31 967.72 C 255.72 941.88 193.03 900.60 142.01 847.99 C 86.39 791.00 44.61 720.54 21.63 644.27 C 9.17 603.33 2.22 560.73 0.61 517.99 C 1.26 505.67 1.14 493.32 0.54 481.01 C 1.55 463.56 2.74 446.08 5.43 428.79 C 16.87 347.92 48.97 270.15 97.50 204.48 C 130.63 159.46 171.32 120.02 217.36 88.31 C 289.18 38.54 374.36 8.43 461.47 1.74 Z" />
<path fill="#fefefe" d=" M 465.52 12.90 C 552.80 6.73 641.74 24.41 719.73 64.20 C 789.19 99.33 849.99 151.35 895.60 214.42 C 932.04 264.70 958.88 321.97 973.84 382.26 C 999.32 483.77 990.85 593.45 949.77 689.74 C 919.70 760.62 872.64 824.22 813.63 873.68 C 749.74 927.55 671.82 964.74 589.61 979.97 C 530.82 990.97 470.02 991.03 411.20 980.12 C 348.42 968.57 288.05 944.30 234.58 909.45 C 172.76 869.27 120.18 814.97 82.04 751.87 C 42.11 686.12 18.12 610.74 12.94 533.97 C 11.99 517.34 11.05 500.65 12.05 483.99 C 13.94 422.41 27.80 361.20 52.60 304.80 C 84.59 231.74 134.82 166.82 197.35 117.33 C 258.86 68.49 332.26 34.65 409.50 20.21 C 428.00 16.63 446.74 14.37 465.52 12.90 Z" />
<path fill="#065498" d=" M 419.53 43.83 C 426.30 42.61 433.17 41.86 440.03 41.36 C 442.06 57.49 443.88 73.66 446.15 89.75 C 456.74 88.96 467.21 86.94 477.80 86.24 C 478.38 91.54 479.57 96.80 479.50 102.15 C 462.20 103.82 445.01 106.77 427.66 107.87 C 424.79 86.54 422.42 65.15 419.53 43.83 Z" />
<path fill="#065498" d=" M 598.35 47.19 C 614.61 50.99 630.65 55.72 646.88 59.69 C 646.56 64.26 644.92 68.59 643.72 72.98 C 633.76 71.73 624.42 67.59 614.50 66.14 C 613.43 69.64 612.35 73.17 612.05 76.84 C 619.98 79.09 628.04 80.87 635.94 83.23 C 635.50 87.58 634.21 91.77 632.76 95.88 C 624.44 94.25 616.47 91.00 608.04 89.95 C 605.69 98.21 603.42 106.50 601.30 114.83 C 594.49 113.94 587.98 111.57 581.32 110.00 C 586.68 88.98 592.62 68.11 598.35 47.19 Z" />
<path fill="#065498" d=" M 358.70 59.83 C 365.94 57.98 373.08 55.70 380.42 54.32 C 391.69 69.80 402.95 85.28 414.23 100.76 C 416.59 104.05 419.27 107.14 421.13 110.77 C 414.25 112.52 407.50 114.94 400.45 115.85 C 398.70 112.83 396.79 109.91 394.89 106.98 C 387.25 108.21 379.90 110.76 372.38 112.50 C 372.27 116.27 372.28 120.04 371.81 123.79 C 366.11 125.55 360.25 126.73 354.51 128.37 C 352.08 128.96 350.83 131.45 348.60 132.46 C 343.06 135.27 337.49 138.03 331.94 140.80 C 324.31 136.36 317.39 130.78 309.80 126.27 C 306.91 124.41 303.30 125.29 300.51 126.85 C 303.96 134.99 309.21 142.33 312.08 150.69 C 306.07 153.50 300.40 157.13 294.08 159.22 C 287.07 146.40 280.64 133.27 273.75 120.39 C 270.64 114.05 267.07 107.95 264.21 101.50 C 274.74 96.26 285.24 90.95 295.79 85.74 C 301.63 83.00 308.03 80.07 314.64 81.59 C 324.78 84.30 330.84 96.84 326.52 106.45 C 325.19 109.34 322.97 111.68 320.94 114.10 C 324.36 114.18 327.92 114.28 330.96 116.04 C 338.25 119.85 344.47 125.32 351.39 129.73 C 352.27 125.76 352.50 121.71 352.83 117.68 C 354.85 98.40 356.57 79.09 358.70 59.83 Z" />
<path fill="#065498" d=" M 673.44 74.47 C 674.51 73.41 675.67 72.43 676.84 71.46 C 683.46 74.44 690.15 77.25 696.77 80.24 C 696.42 96.53 694.76 112.74 694.07 129.01 C 693.12 135.85 694.15 142.97 692.23 149.64 C 685.95 146.84 679.66 144.06 673.33 141.38 C 673.48 137.77 674.00 134.19 674.69 130.64 C 667.85 126.76 660.47 123.82 653.13 121.02 C 650.83 123.79 648.45 126.50 645.96 129.11 C 639.54 126.82 633.42 123.79 627.13 121.19 C 628.95 118.39 631.58 116.27 633.90 113.90 C 647.10 100.78 660.30 87.66 673.44 74.47 Z" />
<path fill="#fefefe" d=" M 373.68 73.91 C 376.48 77.37 378.68 81.24 381.07 84.98 C 382.94 87.97 385.13 90.79 386.41 94.11 C 381.92 95.47 377.41 96.85 372.77 97.59 C 373.24 89.71 373.47 81.81 373.68 73.91 Z" />
<path fill="#fefefe" d=" M 668.08 104.08 C 672.07 99.93 675.69 95.44 679.65 91.26 C 678.42 99.17 677.69 107.15 676.54 115.07 C 672.06 113.90 667.94 111.74 663.76 109.81 C 664.96 107.73 666.41 105.80 668.08 104.08 Z" />
<path fill="#fefefe" d=" M 288.86 104.06 C 293.19 101.98 297.32 99.09 302.12 98.28 C 307.36 97.13 311.08 104.78 307.22 108.30 C 303.67 111.79 299.02 113.79 294.54 115.77 C 292.56 111.91 290.39 108.13 288.86 104.06 Z" />
<path fill="#065498" d=" M 700.16 150.09 C 712.25 133.72 723.52 116.75 735.89 100.60 C 743.28 105.54 750.77 110.38 757.81 115.83 C 753.19 128.21 747.96 140.39 743.88 152.96 C 754.58 144.86 764.33 135.56 774.95 127.36 C 782.24 132.20 789.38 137.26 796.62 142.18 C 790.40 152.26 782.95 161.54 776.26 171.31 C 770.43 179.38 764.80 187.60 758.85 195.58 C 754.12 192.71 749.48 189.65 745.14 186.21 C 754.35 173.12 763.91 160.25 772.90 147.01 C 759.90 157.30 747.39 168.21 734.71 178.89 C 730.25 176.54 726.28 173.41 722.17 170.54 C 727.67 154.88 734.10 139.55 739.79 123.95 C 729.90 136.59 721.16 150.10 711.56 162.97 C 707.18 160.62 703.17 157.62 699.15 154.72 C 697.00 153.51 699.41 151.43 700.16 150.09 Z" />
<path fill="#065498" d=" M 232.37 127.53 C 242.03 125.01 252.33 128.91 259.39 135.61 C 265.01 141.18 269.82 147.86 272.23 155.47 C 275.03 164.61 272.20 174.86 265.83 181.84 C 260.17 188.03 253.05 193.08 245.09 195.83 C 234.86 199.36 223.22 195.72 215.51 188.49 C 208.65 181.99 202.98 173.61 201.78 164.05 C 200.72 155.36 204.55 146.69 210.54 140.53 C 216.57 134.52 223.93 129.37 232.37 127.53 Z" />
<path fill="#065498" d=" M 487.42 127.54 C 530.21 126.11 573.26 131.96 613.99 145.19 C 687.52 168.72 753.05 216.02 799.02 277.98 C 845.83 340.40 872.15 417.95 872.61 496.00 C 873.43 553.90 860.24 611.92 834.64 663.85 C 811.82 710.14 779.35 751.64 739.87 784.87 C 703.58 815.55 661.38 839.25 616.22 854.09 C 550.04 875.98 477.66 878.58 410.05 861.69 C 335.99 843.39 268.16 801.36 218.35 743.63 C 190.88 711.98 168.76 675.67 153.33 636.70 C 119.76 552.57 118.63 456.05 150.32 371.19 C 177.30 297.82 228.21 233.61 293.20 190.22 C 350.37 151.69 418.51 129.65 487.42 127.54 Z" />
<path fill="#cde8f8" d=" M 388.40 156.45 C 442.18 138.88 500.13 134.15 556.01 143.11 C 597.89 149.67 638.61 163.68 675.58 184.43 C 706.37 201.71 734.61 223.49 759.24 248.77 C 813.82 304.90 849.68 379.13 858.69 456.98 C 866.96 524.08 855.56 593.38 826.52 654.42 C 817.86 672.75 807.49 690.24 795.89 706.86 C 794.34 709.01 793.03 711.44 790.88 713.07 C 786.87 713.57 782.81 713.27 778.80 713.13 C 778.49 709.76 778.96 706.27 777.84 703.04 C 775.56 696.24 774.12 689.15 774.01 681.97 C 772.77 673.35 771.39 664.71 771.75 655.97 C 771.20 640.98 771.73 625.99 771.21 611.01 C 771.36 605.19 770.34 599.15 772.42 593.56 C 773.61 589.82 773.13 585.85 773.19 582.01 C 772.97 567.67 773.72 553.30 772.49 539.00 C 772.60 527.64 771.34 516.35 771.34 505.00 C 773.86 508.46 776.97 511.65 778.26 515.84 C 780.03 520.33 779.80 525.46 782.36 529.66 C 785.32 535.17 790.32 539.31 792.94 545.03 C 795.04 549.52 797.69 553.94 798.14 558.99 C 798.52 563.67 798.27 568.37 798.46 573.05 C 798.10 576.46 801.80 578.40 801.67 581.80 C 801.54 583.64 803.58 583.82 804.91 583.47 C 807.57 583.06 807.25 579.77 808.08 577.82 C 809.94 572.06 809.77 565.97 809.53 560.00 C 809.17 553.17 806.32 546.85 804.86 540.25 C 802.89 533.38 803.04 525.92 799.50 519.55 C 795.37 511.92 792.85 503.61 789.49 495.65 C 787.82 491.01 787.79 486.01 786.62 481.26 C 784.70 473.69 783.64 465.95 781.85 458.35 C 780.62 453.18 780.13 447.56 776.87 443.16 C 774.11 438.90 768.92 437.53 764.57 435.53 C 757.99 432.70 750.09 430.26 746.82 423.24 C 745.08 418.76 746.76 413.87 748.54 409.67 C 752.23 400.98 752.95 390.67 749.00 381.97 C 746.33 376.59 740.81 373.98 735.56 371.77 C 734.47 370.41 733.46 369.02 732.42 367.64 C 727.51 367.15 722.51 367.36 717.67 366.35 C 713.94 365.59 711.79 362.17 709.53 359.45 C 702.57 350.74 695.59 342.05 688.70 333.29 C 686.48 330.18 682.57 329.30 678.99 329.02 C 672.97 328.35 666.97 329.42 660.95 329.34 C 654.28 329.32 648.60 324.96 642.00 324.55 C 638.00 324.53 634.25 326.11 630.42 327.06 C 628.88 323.24 627.29 319.44 625.34 315.81 C 622.93 315.53 619.87 315.94 618.50 313.44 C 614.95 308.56 609.27 306.05 604.75 302.24 C 601.89 300.17 599.15 297.10 595.32 297.28 C 592.45 297.33 589.40 297.44 586.83 298.83 C 585.12 300.56 584.02 302.76 582.58 304.69 C 580.94 307.11 578.14 308.25 575.89 309.97 C 573.46 311.69 572.15 314.46 570.63 316.93 C 570.28 315.29 569.93 313.65 569.60 312.02 C 562.02 311.19 554.40 312.16 546.82 311.60 C 549.55 311.35 552.29 311.14 555.04 310.96 C 555.36 308.74 557.36 305.66 554.97 304.01 C 553.28 302.58 550.90 303.28 548.90 303.26 C 548.25 300.37 547.40 296.93 549.54 294.44 C 553.12 290.07 557.51 286.47 561.51 282.50 C 566.78 277.90 565.72 270.07 565.47 263.80 C 563.51 262.47 560.76 261.57 560.08 259.04 C 557.94 252.06 557.99 244.53 555.26 237.71 C 554.72 236.18 553.30 235.29 552.20 234.20 C 545.11 241.22 540.78 250.68 532.82 256.85 C 529.28 259.78 524.45 260.62 519.98 260.33 C 516.39 259.56 513.61 256.70 509.96 256.11 C 506.29 255.47 502.58 256.12 498.97 256.80 C 498.12 258.73 497.27 260.67 496.41 262.61 C 490.31 263.00 483.91 261.63 478.10 264.07 C 472.95 265.87 468.47 269.49 462.99 270.26 C 459.22 270.27 454.23 269.00 453.14 264.84 C 451.94 260.73 451.10 256.43 451.24 252.12 C 451.48 246.39 456.92 242.09 456.30 236.23 C 453.44 233.50 451.30 230.24 451.26 226.14 C 449.45 226.26 447.62 226.25 445.87 226.73 C 442.98 228.86 441.71 232.94 438.04 233.99 C 433.42 235.53 428.62 236.45 423.99 237.94 C 418.15 239.64 412.20 242.09 406.00 241.10 C 400.57 240.31 395.24 238.58 389.69 238.89 C 391.09 242.05 395.02 244.32 394.36 248.15 C 394.14 251.55 393.96 254.96 394.10 258.38 C 397.15 258.93 400.21 259.50 403.24 260.19 C 400.38 262.35 397.28 264.21 394.57 266.57 C 388.42 272.69 380.41 276.96 372.04 279.13 C 366.85 280.83 363.08 276.42 359.31 273.69 C 356.82 271.87 355.86 268.82 354.55 266.17 C 350.91 267.87 347.65 270.28 343.96 271.84 C 336.21 274.59 327.89 274.64 319.86 275.96 C 319.70 277.67 319.04 279.47 319.59 281.17 C 321.87 282.91 325.15 284.12 325.05 287.53 C 321.97 288.22 318.76 288.58 315.88 289.93 C 315.18 291.81 314.79 293.86 315.05 295.87 C 316.07 299.81 319.67 302.75 319.82 306.99 C 320.36 316.57 316.52 325.62 314.83 334.91 C 313.61 339.60 313.53 344.74 311.11 349.02 C 304.55 352.50 296.75 352.63 290.19 356.15 C 282.82 360.14 276.19 366.30 273.48 374.42 C 272.11 378.96 267.69 381.58 266.01 385.95 C 264.63 389.20 263.17 392.49 262.69 396.02 C 262.53 400.62 265.68 404.31 267.96 408.02 C 269.56 410.46 270.03 413.39 270.76 416.16 C 273.33 417.09 275.74 418.43 277.79 420.27 C 280.22 422.78 283.95 421.48 286.98 421.20 C 286.36 421.89 285.76 422.59 285.18 423.31 C 287.49 428.83 291.18 433.58 294.52 438.50 C 297.11 442.26 300.37 445.64 302.09 449.94 C 300.92 458.24 301.39 466.64 301.25 475.00 C 301.26 482.69 301.12 490.50 302.99 498.02 C 304.88 505.59 305.56 513.38 307.02 521.03 C 307.71 525.21 307.48 529.59 306.21 533.65 C 304.74 533.18 303.27 532.73 301.80 532.27 C 303.15 531.98 304.51 531.70 305.88 531.45 C 305.71 529.32 306.03 526.96 304.76 525.11 C 301.97 520.91 298.41 517.24 294.42 514.17 C 294.24 514.63 293.88 515.55 293.71 516.01 C 291.61 512.26 290.40 508.12 288.65 504.21 C 285.85 497.92 284.86 490.85 280.94 485.07 C 279.33 482.47 276.24 481.61 273.66 480.32 C 269.95 478.49 266.02 477.20 262.14 475.79 C 259.21 475.04 259.01 471.44 258.75 468.98 C 259.12 463.10 265.26 459.76 266.00 453.95 C 266.80 445.06 267.18 435.38 262.62 427.36 C 258.58 422.66 251.73 422.08 245.93 422.28 C 239.93 422.31 233.65 425.40 231.03 430.99 C 227.97 437.17 229.73 444.18 229.58 450.77 C 230.39 454.54 230.85 459.37 234.68 461.35 C 237.97 463.51 239.15 468.78 236.94 472.02 C 231.21 476.58 224.34 479.39 218.06 483.07 C 213.90 485.59 212.42 490.44 210.45 494.59 C 207.31 500.83 206.07 507.80 203.19 514.16 C 201.92 517.79 199.75 521.21 199.29 525.07 C 200.03 532.65 197.10 539.89 196.60 547.39 C 196.30 553.85 192.98 559.64 192.43 566.05 C 191.87 571.68 192.07 577.39 190.96 582.97 C 189.48 590.54 191.35 599.37 197.46 604.49 C 198.75 605.62 200.13 607.01 202.02 606.62 C 203.83 605.80 203.26 603.57 203.35 602.03 C 203.27 594.96 202.87 587.91 201.46 580.98 C 202.19 575.90 205.22 571.30 205.21 566.02 C 205.24 559.48 205.64 552.82 208.37 546.77 C 210.09 562.47 209.99 578.28 210.20 594.06 C 209.98 597.43 212.00 600.59 211.31 603.95 C 209.29 613.17 210.78 622.66 210.03 632.00 C 209.52 637.22 209.75 642.47 209.34 647.70 C 211.35 648.90 213.92 649.55 215.38 651.45 C 215.68 659.96 215.65 668.51 215.65 677.03 C 214.65 683.88 212.55 690.73 208.29 696.30 C 206.14 698.64 203.17 700.00 200.24 701.12 C 150.65 628.50 129.75 537.10 142.20 450.10 C 151.91 378.24 184.61 309.92 233.48 256.47 C 275.52 210.73 329.20 175.53 388.40 156.45 Z" />
<path fill="#fefefe" d=" M 229.41 145.48 C 233.94 143.44 239.34 144.83 242.94 148.06 C 247.85 152.36 252.00 157.82 254.06 164.06 C 255.87 169.97 251.50 175.85 246.36 178.35 C 241.68 180.80 235.75 179.56 231.95 176.05 C 226.86 171.44 222.15 165.80 220.64 158.94 C 219.84 153.08 224.05 147.47 229.41 145.48 Z" />
<path fill="#065498" d=" M 786.36 187.37 C 795.14 178.00 803.97 168.66 812.99 159.53 C 818.09 163.88 822.98 168.48 827.90 173.05 C 813.04 189.05 797.92 204.81 782.83 220.59 C 777.75 216.27 772.61 211.92 768.11 207.00 C 773.59 199.95 780.41 194.03 786.36 187.37 Z" />
<path fill="#065498" d=" M 137.37 214.92 C 150.72 199.41 164.34 184.12 178.04 168.94 C 182.18 172.37 186.89 175.36 190.14 179.68 C 185.81 184.80 181.06 189.57 176.94 194.87 C 189.24 205.70 202.07 215.97 214.19 227.01 C 209.96 232.15 205.62 237.23 200.96 241.98 C 188.16 231.63 176.01 220.48 163.20 210.15 C 158.62 215.05 154.44 220.31 149.82 225.17 C 145.23 222.31 141.42 218.45 137.37 214.92 Z" />
<path fill="#065498" d=" M 841.94 191.89 C 843.02 191.12 844.73 189.28 845.87 191.02 C 849.78 195.70 853.67 200.41 857.50 205.17 C 845.13 216.05 831.68 225.65 819.04 236.23 C 825.27 244.71 832.66 252.27 838.77 260.84 C 834.61 264.16 830.58 267.64 826.15 270.60 C 815.19 257.39 804.24 244.18 793.38 230.90 C 809.24 217.51 825.87 205.04 841.94 191.89 Z" />
<path fill="#5fb2df" d=" M 445.87 226.73 C 447.62 226.25 449.45 226.26 451.26 226.14 C 451.30 230.24 453.44 233.50 456.30 236.23 C 456.92 242.09 451.48 246.39 451.24 252.12 C 451.10 256.43 451.94 260.73 453.14 264.84 C 454.23 269.00 459.22 270.27 462.99 270.26 C 468.47 269.49 472.95 265.87 478.10 264.07 C 483.91 261.63 490.31 263.00 496.41 262.61 C 497.27 260.67 498.12 258.73 498.97 256.80 C 502.58 256.12 506.29 255.47 509.96 256.11 C 513.61 256.70 516.39 259.56 519.98 260.33 C 524.45 260.62 529.28 259.78 532.82 256.85 C 540.78 250.68 545.11 241.22 552.20 234.20 C 553.30 235.29 554.72 236.18 555.26 237.71 C 557.99 244.53 557.94 252.06 560.08 259.04 C 560.76 261.57 563.51 262.47 565.47 263.80 C 565.72 270.07 566.78 277.90 561.51 282.50 C 557.51 286.47 553.12 290.07 549.54 294.44 C 547.40 296.93 548.25 300.37 548.90 303.26 C 550.90 303.28 553.28 302.58 554.97 304.01 C 557.36 305.66 555.36 308.74 555.04 310.96 C 552.29 311.14 549.55 311.35 546.82 311.60 C 554.40 312.16 562.02 311.19 569.60 312.02 C 569.93 313.65 570.28 315.29 570.63 316.93 C 572.15 314.46 573.46 311.69 575.89 309.97 C 578.14 308.25 580.94 307.11 582.58 304.69 C 584.02 302.76 585.12 300.56 586.83 298.83 C 589.40 297.44 592.45 297.33 595.32 297.28 C 599.15 297.10 601.89 300.17 604.75 302.24 C 609.27 306.05 614.95 308.56 618.50 313.44 C 619.87 315.94 622.93 315.53 625.34 315.81 C 627.29 319.44 628.88 323.24 630.42 327.06 C 634.25 326.11 638.00 324.53 642.00 324.55 C 648.60 324.96 654.28 329.32 660.95 329.34 C 666.97 329.42 672.97 328.35 678.99 329.02 C 682.57 329.30 686.48 330.18 688.70 333.29 C 695.59 342.05 702.57 350.74 709.53 359.45 C 711.79 362.17 713.94 365.59 717.67 366.35 C 722.51 367.36 727.51 367.15 732.42 367.64 C 733.46 369.02 734.47 370.41 735.56 371.77 C 731.61 372.67 726.88 371.67 723.67 374.66 C 720.96 376.96 717.84 379.22 716.64 382.73 C 714.01 388.79 714.95 395.56 715.34 401.95 C 716.38 408.23 719.88 413.75 721.88 419.74 C 714.52 425.75 706.94 431.51 700.00 438.00 C 698.12 439.51 695.82 440.43 694.07 442.10 C 692.74 444.29 692.03 446.79 690.84 449.07 C 690.84 448.60 690.85 447.66 690.85 447.19 C 686.10 451.65 682.66 457.52 676.99 460.97 C 674.72 462.60 671.73 463.73 670.57 466.48 C 666.43 475.72 667.05 486.09 666.06 495.95 C 665.23 497.29 664.43 498.64 663.64 500.00 C 662.98 494.84 661.92 489.73 660.28 484.79 C 657.45 476.13 657.09 466.98 656.18 457.99 C 654.95 446.02 654.71 433.98 653.83 421.99 C 653.57 418.65 653.85 415.23 652.96 411.99 C 651.71 408.58 648.97 406.01 646.29 403.69 C 642.50 400.37 637.21 399.75 633.20 396.78 C 628.98 393.68 624.31 391.23 620.27 387.89 C 623.33 383.84 628.17 380.62 628.50 375.04 C 627.97 369.62 626.13 364.42 624.67 359.21 C 622.92 354.13 621.60 348.35 617.12 344.90 C 612.79 341.61 608.12 338.05 602.53 337.51 C 597.94 337.40 592.61 339.12 590.57 343.60 C 587.86 349.20 585.67 355.11 584.19 361.17 C 582.15 369.18 587.84 376.80 585.89 384.82 C 585.87 386.08 584.94 387.75 586.18 388.73 C 588.44 389.69 590.83 390.33 593.04 391.44 C 587.14 394.22 581.07 396.64 575.00 399.03 C 571.22 400.53 567.39 402.79 565.69 406.67 C 563.43 411.80 563.97 417.55 563.86 423.00 C 563.83 435.73 560.32 448.26 561.31 461.01 C 561.73 464.91 558.03 467.56 557.39 471.24 C 555.19 481.53 551.90 491.57 549.96 501.93 C 549.32 504.77 548.83 507.78 547.19 510.26 C 544.93 513.33 541.36 515.02 538.73 517.71 C 537.65 519.41 537.73 521.57 537.33 523.50 C 533.14 526.44 528.28 528.22 524.03 531.07 C 520.67 533.28 516.98 534.96 513.09 535.97 C 511.51 532.67 509.72 529.09 510.40 525.32 C 510.84 522.75 511.25 520.10 510.45 517.56 C 508.76 511.38 507.73 504.65 503.32 499.70 C 498.15 493.81 496.75 485.87 495.45 478.41 C 494.15 470.46 491.85 462.74 490.09 454.90 C 489.10 449.23 484.43 445.22 480.02 442.02 C 475.16 439.77 469.19 440.20 464.43 442.52 C 461.39 443.94 460.27 447.34 459.17 450.26 C 456.98 456.63 454.37 463.06 454.41 469.91 C 454.41 477.42 452.80 484.80 451.09 492.07 C 450.44 495.87 445.26 495.50 443.73 498.68 C 442.16 502.07 440.92 505.60 439.28 508.95 C 437.71 505.94 435.57 503.30 433.89 500.37 C 433.04 497.13 433.27 493.71 432.91 490.40 C 429.66 490.24 426.41 490.16 423.17 490.20 C 423.00 491.80 422.83 493.40 422.66 495.00 C 421.96 486.19 421.59 477.30 419.50 468.66 C 418.52 460.30 417.50 451.95 416.35 443.62 C 414.98 433.82 416.58 423.53 413.01 414.11 C 411.70 410.46 410.96 406.66 410.10 402.90 C 409.36 398.95 406.13 396.22 403.16 393.85 C 397.88 389.65 390.79 389.26 385.07 385.90 C 381.03 383.50 376.19 381.62 373.66 377.43 C 372.86 374.34 373.05 371.08 373.25 367.93 C 373.41 364.88 376.28 362.93 377.00 360.05 C 379.22 351.71 379.46 342.67 376.50 334.48 C 374.37 328.84 368.81 325.80 363.74 323.23 C 360.14 321.33 355.98 322.85 352.28 323.57 C 346.66 325.55 341.21 329.58 339.55 335.57 C 337.47 340.54 339.99 345.83 339.01 350.94 C 338.15 356.40 340.51 361.80 344.20 365.72 C 345.20 369.75 344.91 373.96 345.24 378.08 C 342.31 380.61 338.93 382.53 335.85 384.87 C 328.92 390.26 320.54 393.34 313.43 398.44 C 310.03 400.87 310.02 405.41 309.05 409.09 C 308.05 414.17 304.90 418.45 303.34 423.33 C 302.41 426.95 302.84 430.73 302.72 434.42 C 300.69 434.37 298.66 434.31 296.64 434.23 C 296.61 428.05 297.87 421.95 297.80 415.77 C 294.05 417.27 290.42 419.08 286.98 421.20 C 283.95 421.48 280.22 422.78 277.79 420.27 C 275.74 418.43 273.33 417.09 270.76 416.16 C 270.03 413.39 269.56 410.46 267.96 408.02 C 265.68 404.31 262.53 400.62 262.69 396.02 C 263.17 392.49 264.63 389.20 266.01 385.95 C 267.69 381.58 272.11 378.96 273.48 374.42 C 276.19 366.30 282.82 360.14 290.19 356.15 C 296.75 352.63 304.55 352.50 311.11 349.02 C 313.53 344.74 313.61 339.60 314.83 334.91 C 316.52 325.62 320.36 316.57 319.82 306.99 C 319.67 302.75 316.07 299.81 315.05 295.87 C 314.79 293.86 315.18 291.81 315.88 289.93 C 318.76 288.58 321.97 288.22 325.05 287.53 C 325.15 284.12 321.87 282.91 319.59 281.17 C 319.04 279.47 319.70 277.67 319.86 275.96 C 327.89 274.64 336.21 274.59 343.96 271.84 C 347.65 270.28 350.91 267.87 354.55 266.17 C 355.86 268.82 356.82 271.87 359.31 273.69 C 363.08 276.42 366.85 280.83 372.04 279.13 C 380.41 276.96 388.42 272.69 394.57 266.57 C 397.28 264.21 400.38 262.35 403.24 260.19 C 400.21 259.50 397.15 258.93 394.10 258.38 C 393.96 254.96 394.14 251.55 394.36 248.15 C 395.02 244.32 391.09 242.05 389.69 238.89 C 395.24 238.58 400.57 240.31 406.00 241.10 C 412.20 242.09 418.15 239.64 423.99 237.94 C 428.62 236.45 433.42 235.53 438.04 233.99 C 441.71 232.94 442.98 228.86 445.87 226.73 Z" />
<path fill="#065498" d=" M 126.35 238.52 C 131.43 236.68 136.92 237.94 141.84 239.68 C 139.51 245.55 136.16 250.94 133.17 256.49 C 129.99 256.37 126.23 255.27 123.54 257.56 C 120.70 259.90 118.29 263.74 119.48 267.53 C 120.50 270.42 124.61 270.48 126.56 268.53 C 134.21 261.88 140.57 252.93 150.50 249.50 C 159.02 246.49 168.70 251.35 173.06 258.88 C 177.55 266.33 176.12 275.89 172.25 283.29 C 168.90 289.59 164.91 295.81 159.31 300.34 C 152.42 306.10 142.20 305.64 134.44 301.96 C 136.90 296.12 140.10 290.63 143.16 285.09 C 146.76 285.81 150.72 287.32 154.16 285.17 C 159.34 282.60 163.46 274.25 158.14 269.87 C 153.74 266.91 149.05 270.97 145.99 273.98 C 139.24 280.42 132.10 288.69 122.01 288.83 C 113.20 289.38 105.27 281.69 104.68 273.06 C 104.05 265.56 107.60 258.56 111.42 252.37 C 115.05 246.59 119.71 240.87 126.35 238.52 Z" />
<path fill="#065498" d=" M 881.27 250.22 C 883.29 248.94 885.37 247.75 887.64 246.98 C 890.94 252.78 895.17 258.11 897.79 264.26 C 878.73 274.93 860.27 286.66 841.17 297.24 C 837.98 292.54 835.10 287.64 832.18 282.78 C 831.59 281.75 830.46 279.97 832.09 279.25 C 848.46 269.55 864.91 259.96 881.27 250.22 Z" />
<path fill="#5fb2df" d=" M 562.11 288.80 C 561.53 287.47 561.79 286.28 562.89 285.22 C 564.32 286.52 565.60 288.02 566.14 289.92 C 564.77 289.62 563.39 289.34 562.11 288.80 Z" />
<path fill="#5fb2df" d=" M 565.32 292.17 C 570.45 291.49 575.76 291.03 580.88 292.08 C 583.40 292.27 582.20 295.13 581.78 296.62 C 579.55 303.72 572.84 308.33 565.93 310.18 C 562.93 310.71 560.05 309.43 557.23 308.64 C 557.36 304.28 557.49 299.86 558.72 295.65 C 559.65 292.92 562.91 292.65 565.32 292.17 Z" />
<path fill="#065498" d=" M 845.22 304.69 C 868.73 303.06 892.21 301.14 915.71 299.44 C 918.86 305.33 921.63 311.43 924.41 317.52 C 925.69 319.51 923.68 321.08 922.43 322.39 C 906.77 337.74 891.53 353.52 875.86 368.85 C 872.50 362.73 869.51 356.40 866.79 349.99 C 869.44 347.49 872.13 345.02 874.93 342.69 C 872.27 335.66 868.59 329.07 865.53 322.21 C 861.65 322.20 857.83 322.83 854.01 323.38 C 851.07 317.16 847.94 311.02 845.22 304.69 Z" />
<path fill="#065498" d=" M 72.70 333.91 C 75.32 327.10 78.08 320.33 80.99 313.64 C 87.33 313.72 93.68 313.64 100.01 314.10 C 117.22 314.76 134.50 314.23 151.68 315.65 C 149.03 322.01 146.56 328.45 143.75 334.74 C 139.92 334.44 136.10 334.14 132.26 334.22 C 129.44 341.15 126.32 347.99 123.89 355.07 C 126.71 357.43 129.64 359.67 132.49 362.01 C 130.12 368.38 127.45 374.63 124.77 380.87 C 112.64 370.48 101.05 359.48 89.08 348.91 C 83.70 343.82 77.94 339.14 72.70 333.91 Z" />
<path fill="#fefefe" d=" M 880.44 319.96 C 888.25 318.34 896.23 317.67 904.11 316.43 C 898.84 322.26 892.55 327.09 886.71 332.33 C 883.96 328.57 882.30 324.19 880.44 319.96 Z" />
<path fill="#fefefe" d=" M 92.98 330.43 C 101.02 330.94 109.04 331.68 117.06 332.45 C 115.88 336.92 113.97 341.15 112.00 345.31 C 105.36 340.76 99.19 335.55 92.98 330.43 Z" />
<path fill="#065498" d=" M 875.49 376.03 C 896.76 370.70 918.09 365.61 939.37 360.30 C 942.00 367.19 943.15 374.53 945.18 381.61 C 947.23 390.80 951.01 400.05 949.50 409.62 C 947.00 419.87 934.15 424.89 924.80 421.13 C 920.34 419.49 917.35 415.62 914.57 411.98 C 913.46 419.15 907.78 424.14 902.48 428.48 C 898.63 431.53 895.18 435.03 891.27 437.98 C 889.07 430.79 887.34 423.46 885.68 416.14 C 891.85 410.13 898.64 404.79 904.71 398.67 C 907.33 396.28 907.73 392.41 906.32 389.27 C 897.77 391.40 889.21 393.45 880.69 395.67 C 878.28 389.34 877.07 382.61 875.49 376.03 Z" />
<path fill="#065498" d=" M 64.76 371.76 C 71.51 367.06 80.57 368.09 87.68 371.36 C 93.62 374.16 97.59 380.42 97.73 386.96 C 98.38 393.97 95.81 400.66 95.15 407.55 C 103.04 409.22 111.04 410.37 118.89 412.24 C 118.00 418.81 116.34 425.24 115.27 431.78 C 113.16 431.54 111.04 431.28 108.95 430.87 C 89.38 427.00 69.75 423.47 50.18 419.59 C 51.74 409.27 54.19 399.10 56.06 388.83 C 57.23 382.53 59.22 375.61 64.76 371.76 Z" />
<path fill="#fefefe" d=" M 919.09 386.23 C 923.26 385.13 927.43 384.02 931.68 383.22 C 932.85 387.77 934.55 392.30 934.58 397.05 C 934.64 402.40 926.53 404.64 923.57 400.39 C 920.87 396.18 919.53 391.18 919.09 386.23 Z" />
<path fill="#fefefe" d=" M 70.28 391.32 C 72.91 386.89 80.68 387.59 82.49 392.41 C 83.94 396.48 82.52 400.77 81.70 404.82 C 76.88 404.33 72.18 403.13 67.43 402.25 C 67.79 398.50 68.38 394.62 70.28 391.32 Z" />
<path fill="#fefefe" d=" M 286.98 421.20 C 290.42 419.08 294.05 417.27 297.80 415.77 C 297.87 421.95 296.61 428.05 296.64 434.23 C 298.66 434.31 300.69 434.37 302.72 434.42 C 302.80 439.60 302.64 444.78 302.09 449.94 C 300.37 445.64 297.11 442.26 294.52 438.50 C 291.18 433.58 287.49 428.83 285.18 423.31 C 285.76 422.59 286.36 421.89 286.98 421.20 Z" />
<path fill="#cde8f8" d=" M 700.00 438.00 C 706.94 431.51 714.52 425.75 721.88 419.74 C 721.53 422.51 722.69 426.16 720.08 428.10 C 714.45 433.12 707.51 436.86 700.00 438.00 Z" />
<path fill="#fefefe" d=" M 676.99 460.97 C 682.66 457.52 686.10 451.65 690.85 447.19 C 690.85 447.66 690.84 448.60 690.84 449.07 C 689.20 455.27 688.33 461.80 685.96 467.79 C 681.09 475.01 676.39 482.36 671.68 489.69 C 670.17 492.08 668.10 494.02 666.06 495.95 C 667.05 486.09 666.43 475.72 670.57 466.48 C 671.73 463.73 674.72 462.60 676.99 460.97 Z" />
<path fill="#cde8f8" d=" M 393.99 452.78 C 396.94 460.39 398.77 468.38 400.89 476.25 C 403.69 483.87 405.16 491.93 408.45 499.37 C 409.65 502.19 406.10 503.62 405.55 506.05 C 404.62 511.64 406.73 517.12 408.92 522.16 C 412.80 528.53 420.05 531.63 424.71 537.30 C 426.89 539.95 429.37 542.34 432.11 544.42 C 432.43 549.88 432.31 555.35 432.37 560.82 C 436.10 561.25 439.86 561.36 443.62 561.47 L 443.81 562.23 C 441.66 562.39 439.52 562.59 437.38 562.81 C 439.03 566.51 439.07 571.71 443.07 573.78 C 442.64 579.26 441.41 584.66 439.75 589.90 C 437.53 596.52 436.91 603.65 437.49 610.58 C 439.82 613.41 444.28 613.54 447.14 615.84 C 448.90 618.84 448.42 622.51 449.11 625.82 C 450.11 631.65 449.67 637.61 448.57 643.39 L 448.38 642.57 C 445.47 635.13 441.33 628.26 437.96 621.03 C 424.26 593.94 410.99 566.62 396.94 539.71 C 396.16 539.99 395.38 540.27 394.61 540.55 C 394.29 535.01 394.98 529.51 395.32 524.00 C 394.73 508.63 391.92 493.38 392.24 477.98 C 392.66 469.57 392.49 461.09 393.99 452.78 Z" />
<path fill="#cde8f8" d=" M 671.68 489.69 C 676.39 482.36 681.09 475.01 685.96 467.79 C 684.73 475.11 683.77 482.68 680.36 489.39 C 677.92 495.37 675.11 501.20 671.80 506.75 C 669.58 510.31 669.37 514.80 666.86 518.17 C 665.79 512.11 664.90 506.03 663.64 500.00 C 664.43 498.64 665.23 497.29 666.06 495.95 C 668.10 494.02 670.17 492.08 671.68 489.69 Z" />
<path fill="#5fb2df" d=" M 562.94 498.97 C 566.87 491.61 570.77 484.23 574.83 476.94 C 574.16 488.35 572.07 499.60 571.20 510.98 C 570.64 516.01 569.12 520.89 568.94 525.97 C 568.28 547.27 567.60 568.57 567.38 589.88 C 567.16 589.52 566.73 588.79 566.51 588.43 C 560.40 590.26 554.76 593.37 549.36 596.71 C 542.84 600.96 535.96 604.86 530.30 610.27 C 526.86 613.52 527.55 618.68 527.40 622.96 C 527.80 631.58 526.18 641.26 519.05 646.96 C 514.01 651.28 508.76 655.40 504.32 660.37 C 500.53 664.77 498.05 670.08 495.11 675.04 C 493.01 678.35 490.37 681.29 487.28 683.69 C 485.21 685.28 483.11 686.81 481.04 688.39 C 481.44 674.70 487.61 661.78 486.98 647.96 C 488.35 638.34 486.03 628.18 490.25 619.08 C 492.32 618.80 494.41 618.64 496.46 618.18 C 498.66 617.52 500.07 615.57 501.61 614.00 C 499.13 606.55 499.22 598.64 497.84 590.99 C 496.23 582.11 495.78 573.04 495.63 564.03 C 496.45 556.35 497.98 548.71 497.34 540.94 C 499.16 544.66 501.03 548.42 503.90 551.47 C 515.95 551.83 524.16 541.70 534.68 537.63 C 539.02 535.42 543.98 536.28 548.65 535.74 C 550.57 531.28 552.19 526.70 554.25 522.31 C 557.83 514.78 558.94 506.32 562.94 498.97 Z" />
<path fill="#5fb2df" d=" M 639.99 483.84 C 642.25 487.94 643.14 492.62 645.38 496.73 C 649.17 503.21 652.54 510.18 654.52 517.38 C 652.41 520.12 650.30 522.98 649.52 526.42 C 648.04 532.47 645.44 538.18 644.08 544.25 C 644.69 533.87 644.41 523.45 643.45 513.10 C 642.45 503.33 639.14 493.74 639.99 483.84 Z" />
<path fill="#cde8f8" d=" M 696.83 497.85 C 699.70 495.30 700.80 491.46 703.49 488.78 C 703.94 496.61 703.98 504.60 702.11 512.27 C 701.25 516.16 701.11 520.16 700.33 524.07 C 700.15 523.32 699.80 521.82 699.62 521.07 C 696.67 523.28 694.05 525.89 691.76 528.78 C 687.66 533.99 682.60 538.41 679.02 544.04 C 676.64 541.35 673.20 537.22 675.50 533.59 C 676.61 531.38 677.87 529.26 679.11 527.13 C 682.16 521.40 688.26 517.92 690.73 511.81 C 692.57 507.09 692.98 501.54 696.83 497.85 Z" />
<path fill="#fefefe" d=" M 423.17 490.20 C 426.41 490.16 429.66 490.24 432.91 490.40 C 433.27 493.71 433.04 497.13 433.89 500.37 C 435.57 503.30 437.71 505.94 439.28 508.95 C 438.25 512.55 436.98 516.20 437.27 520.00 C 437.62 523.09 436.25 525.96 435.46 528.87 C 432.58 529.07 430.24 527.42 428.10 525.73 C 428.86 519.41 431.53 512.93 429.45 506.57 C 428.28 502.15 425.42 498.52 422.66 495.00 C 422.83 493.40 423.00 491.80 423.17 490.20 Z" />
<path fill="#fefefe" d=" M 294.42 514.17 C 298.41 517.24 301.97 520.91 304.76 525.11 C 306.03 526.96 305.71 529.32 305.88 531.45 C 304.51 531.70 303.15 531.98 301.80 532.27 C 299.00 531.00 296.20 529.73 293.33 528.64 C 294.60 527.13 296.00 525.67 296.86 523.87 C 296.37 521.06 294.59 518.69 293.71 516.01 C 293.88 515.55 294.24 514.63 294.42 514.17 Z" />
<path fill="#cde8f8" d=" M 649.52 526.42 C 650.30 522.98 652.41 520.12 654.52 517.38 C 657.37 522.04 660.33 526.86 661.40 532.28 C 662.69 536.87 657.57 540.29 658.86 544.89 C 660.12 548.03 662.38 550.91 665.39 552.53 C 667.27 552.98 669.22 553.06 671.16 553.26 C 661.42 561.03 654.58 571.70 645.84 580.49 C 645.28 579.27 644.72 578.06 644.22 576.84 C 643.00 572.36 643.93 567.59 643.71 563.00 C 643.96 556.76 643.38 550.46 644.08 544.25 C 645.44 538.18 648.04 532.47 649.52 526.42 Z" />
<path fill="#fefefe" d=" M 691.76 528.78 C 694.05 525.89 696.67 523.28 699.62 521.07 C 699.80 521.82 700.15 523.32 700.33 524.07 C 699.49 540.29 699.68 556.56 698.24 572.75 C 689.99 578.88 682.57 586.03 674.99 592.94 C 662.86 603.48 650.86 614.18 638.92 624.93 C 637.10 626.54 634.95 627.70 632.75 628.69 C 632.89 625.70 633.25 622.73 633.68 619.78 C 637.82 619.76 642.96 620.35 645.15 615.92 C 645.78 609.96 644.70 604.02 644.62 598.07 C 644.28 591.00 644.35 583.91 644.22 576.84 C 644.72 578.06 645.28 579.27 645.84 580.49 C 654.58 571.70 661.42 561.03 671.16 553.26 C 673.69 551.96 676.58 552.33 679.28 552.74 C 679.44 549.84 679.61 546.90 679.02 544.04 C 682.60 538.41 687.66 533.99 691.76 528.78 Z" />
<path fill="#cde8f8" d=" M 273.23 534.24 C 273.59 534.27 274.33 534.32 274.70 534.35 C 274.67 534.71 274.62 535.45 274.59 535.82 C 274.39 539.50 273.95 543.20 274.41 546.87 C 274.77 549.03 276.72 550.37 278.19 551.81 C 285.43 557.88 292.27 564.40 299.39 570.62 C 303.57 574.43 307.70 578.34 312.53 581.34 C 313.29 595.25 312.87 609.21 314.36 623.08 C 307.23 618.42 300.18 613.65 292.99 609.09 C 288.18 606.11 283.73 601.95 277.84 601.42 C 277.61 595.81 278.06 590.19 277.47 584.60 C 276.31 575.05 273.61 565.70 273.27 556.06 C 273.26 548.79 273.01 541.51 273.23 534.24 Z" />
<path fill="#fefefe" d=" M 274.41 546.87 C 273.95 543.20 274.39 539.50 274.59 535.82 C 278.53 540.10 284.56 540.99 290.00 541.92 C 295.22 542.96 300.57 543.24 305.75 544.45 C 309.60 545.23 312.11 549.25 312.31 552.96 C 311.22 562.40 312.96 571.86 312.53 581.34 C 307.70 578.34 303.57 574.43 299.39 570.62 C 292.27 564.40 285.43 557.88 278.19 551.81 C 276.72 550.37 274.77 549.03 274.41 546.87 Z" />
<path fill="#fefefe" d=" M 394.61 540.55 C 395.38 540.27 396.16 539.99 396.94 539.71 C 410.99 566.62 424.26 593.94 437.96 621.03 C 441.33 628.26 445.47 635.13 448.38 642.57 C 445.60 645.45 442.77 648.29 439.86 651.05 C 438.63 651.23 437.41 651.43 436.20 651.65 C 428.91 641.58 422.53 630.87 415.40 620.69 C 408.39 609.59 400.85 598.85 393.79 587.80 C 394.96 572.10 394.21 556.30 394.61 540.55 Z" />
<path fill="#5fb2df" d=" M 432.11 544.42 C 434.46 545.63 436.82 546.91 439.40 547.57 C 441.43 547.91 443.36 546.89 445.28 546.39 C 446.23 552.95 444.50 559.55 444.35 566.14 C 444.22 564.82 444.04 563.52 443.81 562.23 L 443.62 561.47 C 439.86 561.36 436.10 561.25 432.37 560.82 C 432.31 555.35 432.43 549.88 432.11 544.42 Z" />
<path fill="#cde8f8" d=" M 351.04 584.21 C 351.47 575.99 352.52 567.68 355.43 559.93 C 355.55 567.69 358.07 575.29 357.44 583.07 C 355.79 581.84 354.10 580.69 352.44 579.51 C 351.96 581.07 351.47 582.63 351.04 584.21 Z" />
<path fill="#fefefe" d=" M 437.38 562.81 C 439.52 562.59 441.66 562.39 443.81 562.23 C 444.04 563.52 444.22 564.82 444.35 566.14 C 444.01 568.70 443.45 571.22 443.07 573.78 C 439.07 571.71 439.03 566.51 437.38 562.81 Z" />
<path fill="#cde8f8" d=" M 674.99 592.94 C 682.57 586.03 689.99 578.88 698.24 572.75 C 698.87 586.83 698.33 600.94 699.29 615.01 C 699.44 626.32 699.01 637.64 699.25 648.95 C 699.83 659.02 701.89 668.96 702.40 679.04 C 702.36 680.74 701.98 682.41 701.63 684.09 C 701.04 682.60 700.99 680.68 699.73 679.61 C 695.73 680.32 692.03 682.09 688.19 683.32 C 672.43 688.54 656.67 693.78 640.91 698.99 C 637.55 700.17 633.89 700.78 630.91 702.80 C 629.85 704.80 629.36 707.04 628.86 709.24 C 629.54 704.87 628.93 700.47 627.84 696.23 C 626.72 691.98 628.14 687.68 628.37 683.43 C 645.06 675.59 661.39 666.99 677.93 658.84 C 684.46 655.36 691.37 652.62 697.63 648.67 C 698.06 637.76 698.10 626.81 697.62 615.90 C 691.88 618.45 687.02 622.50 681.71 625.79 C 663.63 637.34 645.85 649.35 627.94 661.16 C 628.91 650.25 631.69 639.59 632.75 628.69 C 634.95 627.70 637.10 626.54 638.92 624.93 C 650.86 614.18 662.86 603.48 674.99 592.94 Z" />
<path fill="#fefefe" d=" M 352.44 579.51 C 354.10 580.69 355.79 581.84 357.44 583.07 C 358.35 588.55 358.38 594.17 358.47 599.72 C 357.80 607.07 358.28 614.47 357.83 621.84 C 354.70 619.54 351.66 617.13 348.59 614.77 C 348.00 604.53 348.86 594.22 351.04 584.21 C 351.47 582.63 351.96 581.07 352.44 579.51 Z" />
<path fill="#cde8f8" d=" M 393.79 587.80 C 400.85 598.85 408.39 609.59 415.40 620.69 C 422.53 630.87 428.91 641.58 436.20 651.65 C 437.41 651.43 438.63 651.23 439.86 651.05 C 435.02 655.95 428.76 659.63 425.52 665.91 C 429.49 666.12 434.08 665.76 436.48 669.62 C 438.63 669.84 441.28 669.19 442.88 671.05 C 445.84 673.98 449.07 676.67 452.97 678.25 L 453.66 678.58 C 455.58 684.54 456.49 690.98 454.67 697.08 C 453.74 693.80 452.22 690.68 449.72 688.31 C 444.01 682.32 438.64 676.02 433.19 669.80 C 431.08 667.09 427.39 667.28 424.34 666.74 C 424.74 665.11 425.15 663.48 425.57 661.87 C 417.49 651.56 408.15 642.32 399.70 632.32 C 397.53 629.70 395.12 627.30 392.56 625.08 C 392.06 627.14 391.57 629.20 391.16 631.29 C 390.96 624.51 392.34 617.82 392.47 611.06 C 392.58 603.29 393.31 595.55 393.79 587.80 Z" />
<path fill="#cde8f8" d=" M 549.36 596.71 C 554.76 593.37 560.40 590.26 566.51 588.43 C 566.73 588.79 567.16 589.52 567.38 589.88 C 566.65 599.11 564.18 608.13 563.84 617.41 C 562.50 620.12 560.86 622.68 559.49 625.39 C 550.70 644.38 540.70 662.78 531.65 681.66 C 527.60 689.34 523.94 697.22 519.87 704.90 C 518.80 707.00 518.00 709.23 517.22 711.45 C 518.17 712.07 519.14 712.68 520.12 713.28 C 516.29 713.36 512.47 713.36 508.64 713.21 C 511.19 712.42 513.21 710.52 513.91 707.92 C 524.32 676.38 534.91 644.89 545.40 613.38 C 547.21 607.96 550.09 602.61 549.36 596.71 Z" />
<path fill="#fefefe" d=" M 732.77 603.98 C 733.98 599.05 732.74 593.48 735.24 588.95 C 736.57 600.93 738.35 612.87 739.76 624.85 C 738.91 628.69 735.37 630.63 732.24 632.41 C 731.75 635.68 731.39 638.96 731.03 642.25 C 732.24 629.53 729.84 616.55 732.77 603.98 Z" />
<path fill="#fefefe" d=" M 530.30 610.27 C 535.96 604.86 542.84 600.96 549.36 596.71 C 550.09 602.61 547.21 607.96 545.40 613.38 C 534.91 644.89 524.32 676.38 513.91 707.92 C 513.21 710.52 511.19 712.42 508.64 713.21 L 507.55 713.58 C 505.86 708.93 507.82 704.18 508.69 699.60 C 511.13 687.71 513.37 675.78 516.02 663.94 C 517.29 658.33 518.31 652.66 519.05 646.96 C 526.18 641.26 527.80 631.58 527.40 622.96 C 527.55 618.68 526.86 613.52 530.30 610.27 Z" />
<path fill="#cde8f8" d=" M 358.47 599.72 C 359.79 603.33 359.39 607.23 359.35 611.00 C 358.09 628.80 361.19 646.54 361.11 664.32 C 360.36 660.75 360.16 657.07 359.28 653.54 C 356.71 649.80 352.19 648.11 348.32 646.05 C 347.83 654.09 348.42 662.16 347.62 670.19 C 346.73 660.03 347.11 649.76 347.52 639.57 C 349.08 631.38 348.36 623.04 348.59 614.77 C 351.66 617.13 354.70 619.54 357.83 621.84 C 358.28 614.47 357.80 607.07 358.47 599.72 Z" />
<path fill="#fefefe" d=" M 277.84 601.42 C 283.73 601.95 288.18 606.11 292.99 609.09 C 300.18 613.65 307.23 618.42 314.36 623.08 C 315.81 633.57 314.12 644.11 315.27 654.62 C 308.67 653.46 303.13 649.50 297.22 646.62 C 290.88 643.47 284.56 640.27 278.23 637.08 C 278.22 637.57 278.18 638.53 278.16 639.02 C 275.17 626.70 276.91 613.89 277.84 601.42 Z" />
<path fill="#fefefe" d=" M 681.71 625.79 C 687.02 622.50 691.88 618.45 697.62 615.90 C 698.10 626.81 698.06 637.76 697.63 648.67 C 691.37 652.62 684.46 655.36 677.93 658.84 C 661.39 666.99 645.06 675.59 628.37 683.43 C 625.59 681.96 625.61 678.59 625.37 675.88 C 624.98 670.82 626.74 665.99 627.94 661.16 C 645.85 649.35 663.63 637.34 681.71 625.79 Z" />
<path fill="#cde8f8" d=" M 243.95 617.96 C 244.64 623.80 244.05 629.89 246.53 635.40 C 250.09 644.19 250.63 653.71 251.38 663.05 C 245.27 660.93 239.25 658.37 232.81 657.43 C 233.73 654.38 235.47 651.70 238.18 649.95 C 238.02 638.97 241.59 628.55 243.95 617.96 Z" />
<path fill="#fefefe" d=" M 559.49 625.39 C 560.86 622.68 562.50 620.12 563.84 617.41 C 567.35 618.08 570.78 619.11 574.31 619.70 C 577.46 625.39 576.84 632.78 573.01 637.99 C 559.41 658.13 546.38 678.64 532.73 698.75 C 529.40 703.78 526.41 709.14 521.97 713.31 C 521.51 713.31 520.58 713.29 520.12 713.28 C 519.14 712.68 518.17 712.07 517.22 711.45 C 518.00 709.23 518.80 707.00 519.87 704.90 C 523.94 697.22 527.60 689.34 531.65 681.66 C 540.70 662.78 550.70 644.38 559.49 625.39 Z" />
<path fill="#cde8f8" d=" M 574.31 619.70 C 574.95 619.70 576.23 619.69 576.88 619.69 C 576.22 632.45 579.39 644.91 581.20 657.45 C 580.43 657.13 579.66 656.82 578.90 656.52 C 567.36 668.79 556.51 681.71 545.19 694.20 C 540.20 699.91 534.86 705.34 530.41 711.50 C 531.23 712.12 532.06 712.76 532.89 713.40 C 529.25 713.27 525.61 713.29 521.97 713.31 C 526.41 709.14 529.40 703.78 532.73 698.75 C 546.38 678.64 559.41 658.13 573.01 637.99 C 576.84 632.78 577.46 625.39 574.31 619.70 Z" />
<path fill="#cde8f8" d=" M 600.77 620.77 C 603.90 620.56 607.15 620.36 610.06 621.83 C 609.78 622.25 609.22 623.11 608.93 623.53 C 605.83 626.22 602.49 628.71 600.05 632.05 C 600.19 628.28 600.53 624.53 600.77 620.77 Z" />
<path fill="#fefefe" d=" M 600.05 632.05 C 602.49 628.71 605.83 626.22 608.93 623.53 C 609.58 630.35 610.77 637.10 611.42 643.92 C 611.16 646.43 611.05 649.28 609.14 651.19 C 605.27 655.21 600.85 658.67 596.41 662.03 C 596.22 660.63 596.07 659.25 595.94 657.86 C 598.12 649.39 597.52 640.41 600.05 632.05 Z" />
<path fill="#fefefe" d=" M 392.56 625.08 C 395.12 627.30 397.53 629.70 399.70 632.32 C 408.15 642.32 417.49 651.56 425.57 661.87 C 425.15 663.48 424.74 665.11 424.34 666.74 C 427.39 667.28 431.08 667.09 433.19 669.80 C 438.64 676.02 444.01 682.32 449.72 688.31 C 452.22 690.68 453.74 693.80 454.67 697.08 C 453.69 699.48 452.26 701.65 450.56 703.60 C 444.18 699.00 438.58 693.47 432.65 688.33 C 421.92 678.74 411.03 669.32 400.32 659.71 C 397.42 656.98 393.88 654.80 391.63 651.46 C 390.61 648.69 390.60 645.68 390.43 642.77 C 390.47 638.94 390.49 635.08 391.16 631.29 C 391.57 629.20 392.06 627.14 392.56 625.08 Z" />
<path fill="#cde8f8" d=" M 732.24 632.41 C 735.37 630.63 738.91 628.69 739.76 624.85 C 740.56 630.77 740.53 636.77 741.06 642.72 C 741.51 647.68 740.95 652.74 742.13 657.62 C 742.68 660.05 743.16 662.50 743.51 664.98 C 739.24 666.43 734.24 666.71 730.63 669.54 C 730.05 674.41 730.34 679.35 729.69 684.22 C 728.35 670.26 729.37 656.15 731.03 642.25 C 731.39 638.96 731.75 635.68 732.24 632.41 Z" />
<path fill="#cde8f8" d=" M 278.23 637.08 C 284.56 640.27 290.88 643.47 297.22 646.62 C 303.13 649.50 308.67 653.46 315.27 654.62 C 315.86 664.83 318.00 674.93 317.34 685.20 C 300.59 679.38 283.70 673.96 266.76 668.74 C 267.70 663.31 267.60 657.62 269.47 652.41 C 272.00 649.68 276.38 649.26 278.50 646.03 C 278.59 643.68 278.16 641.35 278.16 639.02 C 278.18 638.53 278.22 637.57 278.23 637.08 Z" />
<path fill="#cde8f8" d=" M 389.93 659.01 C 390.51 653.61 389.78 648.17 390.43 642.77 C 390.60 645.68 390.61 648.69 391.63 651.46 C 393.88 654.80 397.42 656.98 400.32 659.71 C 411.03 669.32 421.92 678.74 432.65 688.33 C 438.58 693.47 444.18 699.00 450.56 703.60 C 450.93 706.81 451.54 710.02 451.24 713.28 C 450.10 713.24 448.98 713.22 447.85 713.22 C 446.88 711.27 445.57 709.47 443.65 708.37 C 425.38 696.65 407.50 684.29 389.08 672.80 C 389.36 668.20 389.55 663.60 389.93 659.01 Z" />
<path fill="#5fb2df" d=" M 448.38 642.57 L 448.57 643.39 C 448.93 649.12 448.40 654.92 449.40 660.62 C 449.98 666.63 452.79 672.18 452.97 678.25 C 449.07 676.67 445.84 673.98 442.88 671.05 C 441.28 669.19 438.63 669.84 436.48 669.62 C 434.08 665.76 429.49 666.12 425.52 665.91 C 428.76 659.63 435.02 655.95 439.86 651.05 C 442.77 648.29 445.60 645.45 448.38 642.57 Z" />
<path fill="#cde8f8" d=" M 611.42 643.92 C 612.72 653.87 614.82 664.04 613.35 674.07 C 613.21 673.40 612.93 672.07 612.79 671.40 C 609.02 673.71 605.04 675.75 601.63 678.59 C 599.95 679.84 600.04 682.15 599.65 684.02 C 597.25 675.63 592.89 666.63 595.94 657.86 C 596.07 659.25 596.22 660.63 596.41 662.03 C 600.85 658.67 605.27 655.21 609.14 651.19 C 611.05 649.28 611.16 646.43 611.42 643.92 Z" />
<path fill="#fefefe" d=" M 348.32 646.05 C 352.19 648.11 356.71 649.80 359.28 653.54 C 360.16 657.07 360.36 660.75 361.11 664.32 C 361.74 668.71 361.36 673.16 361.42 677.58 C 356.47 676.60 351.96 674.28 347.56 671.89 C 347.58 671.46 347.61 670.62 347.62 670.19 C 348.42 662.16 347.83 654.09 348.32 646.05 Z" />
<path fill="#cde8f8" d=" M 504.32 660.37 C 508.76 655.40 514.01 651.28 519.05 646.96 C 518.31 652.66 517.29 658.33 516.02 663.94 C 513.37 675.78 511.13 687.71 508.69 699.60 C 507.82 704.18 505.86 708.93 507.55 713.58 C 505.77 713.39 503.98 713.30 502.21 713.25 C 502.80 709.77 503.34 706.27 503.55 702.74 C 504.09 690.80 504.88 678.88 505.78 666.97 C 506.06 664.64 505.27 662.43 504.32 660.37 Z" />
<path fill="#fefefe" d=" M 545.19 694.20 C 556.51 681.71 567.36 668.79 578.90 656.52 C 579.66 656.82 580.43 657.13 581.20 657.45 C 582.05 661.95 583.17 666.42 583.80 670.97 C 582.18 676.76 576.75 679.80 572.62 683.63 C 563.31 691.98 553.70 700.01 544.61 708.61 C 541.68 711.46 537.61 712.42 533.74 713.22 L 532.89 713.40 C 532.06 712.76 531.23 712.12 530.41 711.50 C 534.86 705.34 540.20 699.91 545.19 694.20 Z" />
<path fill="#fefefe" d=" M 232.81 657.43 C 239.25 658.37 245.27 660.93 251.38 663.05 C 252.09 670.32 253.19 677.71 251.91 684.98 C 251.43 687.53 249.40 689.44 248.80 691.95 C 248.48 694.65 248.40 697.38 248.07 700.09 C 248.03 698.75 247.98 697.41 247.91 696.09 C 243.59 695.38 239.15 695.21 234.95 693.92 C 232.33 693.06 231.78 689.95 230.71 687.77 C 230.25 677.63 231.08 667.42 232.81 657.43 Z" />
<path fill="#fefefe" d=" M 495.11 675.04 C 498.05 670.08 500.53 664.77 504.32 660.37 C 505.27 662.43 506.06 664.64 505.78 666.97 C 504.88 678.88 504.09 690.80 503.55 702.74 C 503.34 706.27 502.80 709.77 502.21 713.25 C 500.73 713.28 499.26 713.31 497.79 713.34 C 496.69 707.96 496.21 702.49 496.15 697.01 C 496.02 689.67 494.88 682.38 495.11 675.04 Z" />
<path fill="#fefefe" d=" M 730.63 669.54 C 734.24 666.71 739.24 666.43 743.51 664.98 C 746.26 675.49 749.61 686.04 749.53 697.01 C 743.21 698.48 736.77 699.39 730.47 700.95 C 730.77 695.35 729.51 689.81 729.69 684.22 C 730.34 679.35 730.05 674.41 730.63 669.54 Z" />
<path fill="#fefefe" d=" M 265.64 687.45 C 264.92 681.21 265.45 674.86 266.76 668.74 C 283.70 673.96 300.59 679.38 317.34 685.20 C 317.15 688.18 319.21 690.18 321.31 691.95 C 318.95 695.35 316.00 698.28 312.56 700.59 C 309.79 702.31 309.35 705.77 308.16 708.54 C 297.96 707.17 287.93 704.65 277.96 702.15 C 274.88 699.42 272.05 696.22 270.91 692.18 C 270.26 689.61 267.16 689.28 265.64 687.45 Z" />
<path fill="#cde8f8" d=" M 583.80 670.97 C 585.04 673.90 583.50 677.06 583.06 680.03 C 581.58 684.54 583.26 689.23 582.70 693.84 C 582.40 693.55 581.81 692.97 581.52 692.68 C 578.14 693.40 575.45 695.79 572.61 697.60 C 565.92 702.31 558.82 706.43 552.29 711.36 C 552.68 711.85 553.48 712.82 553.88 713.31 C 547.16 713.24 540.45 713.40 533.74 713.22 C 537.61 712.42 541.68 711.46 544.61 708.61 C 553.70 700.01 563.31 691.98 572.62 683.63 C 576.75 679.80 582.18 676.76 583.80 670.97 Z" />
<path fill="#fefefe" d=" M 601.63 678.59 C 605.04 675.75 609.02 673.71 612.79 671.40 C 612.93 672.07 613.21 673.40 613.35 674.07 C 613.31 677.70 611.67 681.01 610.65 684.43 C 609.79 687.20 610.24 690.11 610.57 692.94 C 607.28 694.49 603.89 695.87 600.40 696.93 C 600.24 696.16 599.90 694.63 599.73 693.87 C 599.67 690.58 599.70 687.30 599.65 684.02 C 600.04 682.15 599.95 679.84 601.63 678.59 Z" />
<path fill="#cde8f8" d=" M 347.56 671.89 C 351.96 674.28 356.47 676.60 361.42 677.58 C 361.32 682.26 360.84 686.95 359.46 691.44 C 358.56 693.52 359.84 695.53 360.53 697.45 C 361.90 700.53 361.18 703.97 361.12 707.21 C 360.37 704.65 359.86 702.04 359.38 699.42 C 354.97 696.89 349.96 695.67 344.90 695.61 C 343.86 692.36 344.84 689.04 346.14 686.03 C 348.13 681.58 347.53 676.61 347.56 671.89 Z" />
<path fill="#fefefe" d=" M 389.08 672.80 C 407.50 684.29 425.38 696.65 443.65 708.37 C 445.57 709.47 446.88 711.27 447.85 713.22 C 444.34 713.30 440.82 713.45 437.31 713.15 C 432.56 712.47 427.59 712.06 423.31 709.71 C 415.22 705.33 406.82 701.58 398.72 697.22 C 393.91 694.51 387.91 693.24 384.63 688.44 C 386.22 683.26 387.71 678.04 389.08 672.80 Z" />
<path fill="#cde8f8" d=" M 487.28 683.69 C 490.37 681.29 493.01 678.35 495.11 675.04 C 494.88 682.38 496.02 689.67 496.15 697.01 C 496.21 702.49 496.69 707.96 497.79 713.34 C 496.55 713.28 495.32 713.24 494.09 713.22 C 491.71 703.41 490.89 693.17 487.28 683.69 Z" />
<path fill="#fefefe" d=" M 688.19 683.32 C 692.03 682.09 695.73 680.32 699.73 679.61 C 700.99 680.68 701.04 682.60 701.63 684.09 C 700.71 688.96 699.32 693.77 697.39 698.34 C 695.94 702.71 690.85 703.72 688.11 707.05 C 683.08 713.08 674.43 711.02 667.64 712.97 C 654.61 713.67 641.51 713.16 628.46 713.24 C 628.51 711.89 628.64 710.55 628.86 709.24 C 629.36 707.04 629.85 704.80 630.91 702.80 C 633.89 700.78 637.55 700.17 640.91 698.99 C 656.67 693.78 672.43 688.54 688.19 683.32 Z" />
<path fill="#fefefe" d=" M 481.04 688.39 C 483.11 686.81 485.21 685.28 487.28 683.69 C 490.89 693.17 491.71 703.41 494.09 713.22 C 493.22 713.25 491.46 713.31 490.59 713.34 C 490.79 710.97 491.61 708.51 490.66 706.21 C 490.15 704.00 487.91 702.97 486.39 701.55 C 482.22 698.71 482.64 693.03 480.27 688.97 L 481.04 688.39 Z" />
<path fill="#cde8f8" d=" M 230.71 687.77 C 231.78 689.95 232.33 693.06 234.95 693.92 C 239.15 695.21 243.59 695.38 247.91 696.09 C 247.98 697.41 248.03 698.75 248.07 700.09 C 248.17 703.72 246.25 707.98 248.95 711.08 C 250.69 712.41 252.85 712.96 254.89 713.62 C 247.00 712.97 239.07 713.38 231.17 713.38 C 234.36 705.02 230.92 696.31 230.71 687.77 Z" />
<path fill="#cde8f8" d=" M 382.59 697.45 C 380.20 694.38 383.44 691.28 384.63 688.44 C 387.91 693.24 393.91 694.51 398.72 697.22 C 406.82 701.58 415.22 705.33 423.31 709.71 C 427.59 712.06 432.56 712.47 437.31 713.15 C 421.00 713.47 404.67 713.21 388.35 713.34 C 391.36 707.18 385.29 702.34 382.59 697.45 Z" />
<path fill="#fefefe" d=" M 572.61 697.60 C 575.45 695.79 578.14 693.40 581.52 692.68 C 581.81 692.97 582.40 693.55 582.70 693.84 C 581.38 697.08 579.77 700.23 579.04 703.68 C 578.36 705.69 577.84 707.85 576.55 709.58 C 574.33 711.44 571.44 712.23 568.76 713.17 C 563.81 713.49 558.84 713.23 553.88 713.31 C 553.48 712.82 552.68 711.85 552.29 711.36 C 558.82 706.43 565.92 702.31 572.61 697.60 Z" />
<path fill="#cde8f8" d=" M 600.40 696.93 C 603.89 695.87 607.28 694.49 610.57 692.94 C 610.61 696.31 610.17 699.67 609.76 703.02 C 609.33 706.46 610.31 709.84 610.60 713.26 C 606.43 713.43 602.25 713.49 598.10 713.07 C 598.55 708.37 599.96 703.66 598.92 698.94 C 598.44 697.17 598.93 695.43 599.73 693.87 C 599.90 694.63 600.24 696.16 600.40 696.93 Z" />
<path fill="#fefefe" d=" M 344.90 695.61 C 349.96 695.67 354.97 696.89 359.38 699.42 C 359.86 702.04 360.37 704.65 361.12 707.21 C 361.95 709.49 363.73 711.23 365.11 713.19 C 354.32 713.25 343.51 713.58 332.73 713.00 C 335.91 711.01 340.14 710.65 342.60 707.62 C 343.44 703.63 344.49 699.67 344.90 695.61 Z" />
<path fill="#cde8f8" d=" M 730.47 700.95 C 736.77 699.39 743.21 698.48 749.53 697.01 C 749.72 702.41 748.44 707.73 748.63 713.14 C 741.13 713.41 733.62 713.32 726.12 713.19 C 726.97 709.26 727.86 705.34 728.68 701.41 C 729.13 701.29 730.02 701.07 730.47 700.95 Z" />
<path fill="#cde8f8" d=" M 277.96 702.15 C 287.93 704.65 297.96 707.17 308.16 708.54 C 307.77 710.07 307.43 711.61 307.11 713.17 C 297.87 713.41 288.62 713.25 279.37 713.25 C 281.97 709.58 279.64 705.61 277.96 702.15 Z" />
<path fill="#cde8f8" d=" M 576.55 709.58 C 577.84 707.85 578.36 705.69 579.04 703.68 C 579.24 706.84 579.38 710.02 579.61 713.19 C 575.99 713.31 572.37 713.34 568.76 713.17 C 571.44 712.23 574.33 711.44 576.55 709.58 Z" />
<path fill="#cde8f8" d=" M 667.64 712.97 C 674.43 711.02 683.08 713.08 688.11 707.05 C 688.24 709.10 688.35 711.15 688.45 713.22 C 681.52 713.20 674.56 713.61 667.64 712.97 Z" />
<path fill="#cde8f8" d=" M 468.13 713.42 C 468.87 711.80 469.75 710.25 470.81 708.82 C 471.68 710.24 472.41 711.76 472.96 713.35 C 471.34 713.38 469.73 713.41 468.13 713.42 Z" />
<path fill="#065498" d=" M 287.50 831.06 C 289.30 831.61 291.02 832.39 292.63 833.38 C 301.83 838.88 311.20 844.09 320.44 849.54 C 324.91 852.25 329.39 855.91 330.77 861.19 C 333.82 869.99 326.58 881.07 317.01 880.74 C 316.23 880.78 314.68 880.85 313.90 880.89 C 316.24 884.25 318.84 887.72 319.16 891.97 C 319.25 899.66 314.04 907.27 306.58 909.51 C 299.36 912.08 292.25 907.81 285.86 904.88 C 275.62 899.05 265.35 893.23 255.27 887.13 C 265.86 868.36 276.78 849.77 287.50 831.06 Z" />
<path fill="#065498" d=" M 667.91 860.25 C 673.54 856.89 679.18 853.52 685.00 850.49 C 693.53 864.44 701.02 879.03 709.84 892.78 C 718.86 887.63 727.74 882.27 736.84 877.28 C 739.50 881.95 742.55 886.42 744.73 891.36 C 735.03 896.74 725.47 902.38 715.85 907.90 C 710.45 910.75 705.49 914.45 699.82 916.76 C 691.27 901.27 682.19 886.09 673.43 870.73 C 671.53 867.26 669.07 864.07 667.91 860.25 Z" />
<path fill="#fefefe" d=" M 293.10 863.40 C 294.10 859.35 296.67 855.95 298.93 852.53 C 302.82 854.70 307.09 856.50 310.21 859.77 C 313.55 863.30 309.69 870.03 305.03 869.29 C 300.69 868.17 297.05 865.41 293.10 863.40 Z" />
<path fill="#065498" d=" M 361.41 871.14 C 366.68 871.96 371.73 873.74 376.89 875.05 C 384.72 877.28 392.71 878.94 400.41 881.60 C 404.93 883.22 409.66 885.50 412.15 889.84 C 416.06 896.42 414.55 905.15 410.00 911.02 C 406.23 915.71 400.05 917.50 394.22 917.45 C 398.43 920.34 400.93 924.97 402.06 929.87 C 403.60 936.67 405.17 943.48 406.41 950.35 C 399.04 948.70 391.74 946.69 384.52 944.52 C 382.39 936.24 380.79 927.82 378.43 919.61 C 377.52 916.25 374.42 914.02 371.00 913.95 C 368.58 922.19 366.47 930.53 364.33 938.86 C 357.81 937.97 351.62 935.56 345.18 934.27 C 345.26 932.44 345.39 930.61 345.87 928.85 C 351.11 909.63 356.17 890.36 361.41 871.14 Z" />
<path fill="#065498" d=" M 619.21 878.65 C 625.48 876.52 631.80 874.54 638.12 872.54 C 645.30 892.93 651.50 913.68 658.40 934.17 C 652.43 937.04 645.86 938.41 639.66 940.70 C 635.47 930.97 632.90 920.61 629.43 910.60 C 626.08 899.93 622.25 889.41 619.21 878.65 Z" />
<path fill="#fefefe" d=" M 286.31 874.05 C 290.99 876.35 295.87 878.64 299.60 882.37 C 303.47 886.18 299.26 893.48 294.06 892.47 C 288.93 891.03 284.45 887.93 279.97 885.12 C 281.92 881.34 284.08 877.67 286.31 874.05 Z" />
<path fill="#fefefe" d=" M 377.55 889.12 C 382.31 890.05 387.27 890.95 391.52 893.41 C 395.62 896.18 393.94 903.58 389.01 904.33 C 383.93 904.73 378.96 903.10 374.26 901.37 C 375.37 897.28 376.45 893.20 377.55 889.12 Z" />
<path fill="#065498" d=" M 554.38 892.66 C 560.76 890.97 567.44 890.27 574.04 890.80 C 579.59 891.34 585.44 893.51 588.74 898.25 C 590.76 900.89 591.81 904.08 592.74 907.23 C 586.62 908.63 580.40 909.56 574.18 910.38 C 572.63 907.69 571.18 904.15 567.78 903.49 C 564.20 902.97 559.39 902.82 557.32 906.42 C 555.73 908.56 557.31 911.76 559.84 912.21 C 569.69 914.69 580.64 913.90 589.58 919.43 C 597.76 924.51 599.77 936.18 595.39 944.40 C 592.18 950.77 585.74 954.99 578.91 956.62 C 570.42 958.56 561.34 959.42 552.88 956.90 C 545.07 954.32 540.25 946.61 538.55 938.91 C 544.62 937.15 550.97 936.64 557.17 935.43 C 558.87 938.88 560.40 943.12 564.37 944.53 C 569.35 946.50 577.04 944.86 578.35 938.95 C 578.88 935.31 575.44 932.59 572.22 931.91 C 563.22 929.84 553.24 930.12 545.33 924.73 C 538.61 920.41 536.50 910.88 539.89 903.84 C 542.54 898.01 548.37 894.31 554.38 892.66 Z" />
<path fill="#065498" d=" M 465.42 894.44 C 472.73 894.45 479.98 895.41 487.26 895.77 C 491.62 908.66 495.12 921.83 499.14 934.84 C 501.73 944.04 504.89 953.09 507.12 962.40 C 500.23 962.59 493.42 961.31 486.54 961.26 C 485.46 957.64 484.73 953.94 483.81 950.29 C 476.24 949.45 468.62 949.19 461.02 948.78 C 459.75 952.05 458.45 955.32 457.39 958.68 C 450.57 958.85 443.73 958.45 436.97 957.62 C 438.09 953.24 440.41 949.32 442.20 945.21 C 449.94 928.28 457.70 911.37 465.42 894.44 Z" />
<path fill="#fefefe" d=" M 471.47 921.39 C 472.61 918.52 473.35 915.43 475.26 912.95 C 477.13 920.46 478.91 927.99 480.49 935.57 C 475.91 935.55 471.33 935.32 466.80 934.70 C 467.76 930.06 469.90 925.82 471.47 921.39 Z" />
</svg>
