<?xml version="1.0" encoding="UTF-8"?>
<!DOCTYPE svg PUBLIC "-//W3C//DTD SVG 1.1//EN" "http://www.w3.org/Graphics/SVG/1.1/DTD/svg11.dtd">
<!-- Creator: CorelDRAW -->
<svg xmlns="http://www.w3.org/2000/svg" xml:space="preserve" width="126.076mm" height="126.076mm" style="shape-rendering:geometricPrecision; text-rendering:geometricPrecision; image-rendering:optimizeQuality; fill-rule:evenodd; clip-rule:evenodd"
viewBox="0 0 126.076 126.076"
 xmlns:xlink="http://www.w3.org/1999/xlink">
 <defs>
  <style type="text/css">
   <![CDATA[
    .str0 {stroke:#0A549A;stroke-width:0.0762}
    .str1 {stroke:#0A549A;stroke-width:2.4694}
    .fil0 {fill:white}
    .fil6 {fill:#015198}
    .fil5 {fill:#0A549A}
    .fil3 {fill:#57B8E8}
    .fil2 {fill:#C5E6F9}
    .fil4 {fill:#0A549A;fill-rule:nonzero}
    .fil1 {fill:url(#id0)}
   ]]>
  </style>
  <radialGradient id="id0" gradientUnits="userSpaceOnUse" cx="63.038" cy="107.048" r="15.7675" fx="63.038" fy="107.048">
   <stop offset="0" style="stop-color:white"/>
   <stop offset="1" style="stop-color:#DCEFFD"/>
  </radialGradient>
 </defs>
 <g id="Layer_x0020_1">
  <metadata id="CorelCorpID_0Corel-Layer"/>
  <circle class="fil0 str0" cx="63.0381" cy="63.0382" r="62.9999"/>
  <path class="fil1" d="M63.038 19.0287c24.3017,0 44.0094,19.7077 44.0094,44.0094 0,24.3017 -19.7077,44.0094 -44.0094,44.0094 -24.3016,0 -44.0094,-19.7077 -44.0094,-44.0094 0,-24.3017 19.7078,-44.0094 44.0094,-44.0094z"/>
  <path class="fil2" d="M104.434 84.1877l-39.0144 7.1317 36.6371 -2.5171 2.3773 -4.6146zm4.3349 -14.6828c-0.6992,0.1398 -42.9298,20.8356 -42.9298,20.8356l42.6501 -13.1446c0,0 0.2797,-7.8308 0.2797,-7.691zm-0.5594 -17.3397l-42.3704 37.1965 45.5867 -28.8063 -3.2163 -8.3902zm-8.3901 -17.3397l-35.7982 54.8159 42.0908 -47.5444 -6.2926 -7.2715zm-13.0048 -12.3056l-24.0519 67.8206 32.3022 -62.5069 -8.2503 -5.3137zm-19.1576 -5.7333l-6.1528 73.2743 16.5007 -71.4565 -10.3479 -1.8178zm-19.0178 1.678l12.4455 72.1556 -1.6781 -74.393 -10.7674 2.2374zm-16.7803 9.6487l29.2258 61.5281 -20.6958 -66.9817 -8.53 5.4536zm28.6664 60.8289l-39.0143 -44.3282 4.0552 -10.208 34.9591 54.5362zm-0.8845 0.7823l-42.6543 -28.4362 0.7899 -10.4266 41.8644 38.8628zm-1.4218 -0.3159l-39.0208 -11.5325 -1.5798 -7.741 40.6006 19.2735zm-37.6869 -4.8014l38.5949 5.0342 -36.4974 -0.4196 -2.0975 -4.6146z"/>
  <path class="fil3" d="M62.7033 81.0477l1.7231 -1.9333c-0.0611,-0.279 0.6379,-0.7335 0.6379,-0.7335l0.0321 -0.5572c0.0268,-0.4627 0.1092,-0.6931 0.3859,-0.8722l-0.2205 -0.3348 0.2745 -0.3196 0.5138 0.2696c0.6841,-1.1338 4.6137,-1.5558 5.6995,-2.1954l0.8808 0.1818 1.2808 -1.0767 1.4675 0.0186 0.115 0.3019 0.8155 -0.1397 -0.0157 -0.1869 1.0798 0.5284c0.612,-0.4567 0.128,-0.4791 0.6305,-0.7947 0.2243,-0.1408 0.7435,-0.3119 0.9943,-0.4266l0.0322 -0.5572 0.3341 -0.1134c0.0503,-0.523 1.6284,-2.2014 2.0306,-2.5723 0.8863,-0.8174 0.2408,-2.2479 1.5429,-3.015l-0.1275 -0.0498 0.9761 -2.4995 0.0779 -1.5352c-0.0102,-0.4622 0.3634,-0.8216 0.3921,-1.3185 0.0123,-0.213 -0.2185,-0.0888 -0.1972,-0.4587l0.0065 -0.1114c0.0158,-0.2743 0.6077,-1.6383 0.7717,-1.7445l0.2428 0.4421c1.6588,-0.0266 1.9231,-2.6622 2.4429,-2.4115 0.2599,-0.788 2.2075,-1.7214 2.486,-2.3121 0.2904,-0.6161 1.7749,-1.7639 1.848,-3.0284l0.058 -1.0031c0.2837,-4.91 -1.4285,-2.6391 -3.399,-4.2663 -0.8366,-0.6909 -1.261,-1.1806 -1.9703,-1.9449 -0.2523,-0.272 -2.0964,-1.3766 -2.4657,-1.3979l-0.3343 -0.0193c-0.6085,-0.0352 -0.6303,0.1872 -1.2388,0.1521l-0.1115 -0.0065c-0.2506,-0.0145 -0.3809,-0.3575 -1.4295,-0.4181l-0.7478 -0.3225c-0.4746,-0.718 -1.0003,-0.1752 -1.5539,-0.4814 -0.1381,0.1674 -0.0334,0.2218 -0.3473,0.2036 -1.1377,-0.0657 -0.017,0.1504 -1.1659,0.8272l-0.1618 0.6862c-0.2285,-0.3326 -0.2166,0.0549 -0.1919,-0.3712 0.0303,-0.5257 0.3723,-1.2462 0.6474,-1.5281l-0.2205 -0.3347 0.3205 -0.5304 -0.8504 -0.6963 -0.0897 0.6184c-0.3131,-0.0444 -0.4459,-0.0232 -0.4265,-0.3601l0.0194 -0.3344 -1.6433 -0.4633c-0.1616,-0.7073 -1.194,-0.5702 -1.8522,-0.9687l-1.3369 0.9833c0.4197,0.6938 0.2414,0.7075 -0.307,0.3754l-0.3313 0.3402 -0.6911 -0.0638c-0.2385,0.1404 -0.3087,0.3176 -0.5766,0.3021l-0.7801 -0.0451c-0.0807,0.2446 -0.0454,0.3329 -0.3537,0.3151 -0.1812,-0.0105 -0.2422,-0.32 -0.3086,-0.4652l-0.2798 0.2946 -0.2967 0.0076 -0.0859 -0.3428 0.4234 -0.3585 -0.0319 -0.6239c-0.5277,0.091 -1.6574,0.5762 -2.0502,0.5535l-0.5572 -0.0322c0.0468,-0.3308 0.1123,-0.5526 0.478,-0.5315l0.5572 0.0322c0.1466,-1.8285 3.089,-3.1442 3.1424,-4.0676l0.0193 -0.3343 -0.9917 -0.1978 -0.8072 -3.7336 -0.119 0.3542 -0.432 -0.25c-0.4036,0.5335 -0.7428,0.9509 -1.1366,1.5745 -0.3905,0.6183 -0.4719,1.4649 -1.2736,1.4185 -0.298,-0.0172 -0.3203,-0.1798 -0.4264,-0.36l-0.6709 -0.0015c-0.218,-0.0499 -0.1801,0.2877 -0.5743,0.265 -0.1672,-0.0097 -0.0352,-0.2257 -0.7673,-0.268l-0.2371 -0.4368c-0.772,-0.0688 -0.817,0.2641 -1.2053,0.2416 -0.2131,-0.0123 -0.063,-0.2272 -0.4329,-0.2486 -0.0992,-0.0057 -0.2301,0.1109 -0.2358,0.21 -0.0176,0.3051 0.2019,0.3764 0.1843,0.6815 -0.009,0.1563 -0.1648,0.2142 -0.3472,0.2036 -0.0709,-0.0041 -0.3071,-0.2697 -0.4265,-0.3601 -0.1144,0.2669 -0.1475,0.327 -0.5766,0.3022 -0.3871,-0.0224 -0.1572,-0.2328 -0.5443,-0.2551l-0.4458 -0.0258 -0.0258 0.4458 -0.7801 -0.0451 -0.0129 0.2229 -0.4455 -0.1179c-0.1352,0.2143 -0.2202,0.5267 -0.5833,0.5057l-0.3343 -0.0193c-0.5254,-0.0303 -0.9797,-0.7878 -1.1615,-1.1853l0.1506 -0.4342c-0.25,-0.4067 -0.4347,-0.4548 -0.3948,-1.1454 0.0114,-0.1984 0.1777,-0.1732 0.3472,-0.2036l0.368 -0.7235 0.1729 0.068 -0.3027 -1.3465c-0.9476,-0.0726 -0.6989,-0.6258 -0.6087,-1.2621 -0.7801,0.1608 -0.7264,0.9149 -1.6165,1.1522 -0.9186,0.2448 -2.0782,0.103 -2.6857,0.4167 -0.9124,-0.0527 -1.5197,0.2697 -1.8061,-0.3563 -1.5816,0.7233 0.2989,0.633 0.2699,1.1337l-0.0064 0.1115c-0.0211,0.3645 -0.3513,0.2741 -0.3858,0.8722l-0.0258 0.4459c-0.0361,0.625 0.6391,0.4941 1.0887,0.5101l0.2371 0.4368 -0.9357 0.1109 -0.646 1.0996 -0.2028 -0.3869 -0.2015 -0.0196 -1.4158 1.3776 -0.3522 -0.5609 -0.2896 -0.0411c-0.0197,0.2454 0.0018,0.5592 -0.2551,0.5444 -0.2193,-0.0127 -0.9732,-0.6642 -1.2923,-0.8574l0.0322 -0.5572 -0.4628 -0.8398 -0.6006 0.5867 -0.5186 -0.5549 0.0512 0.602 -2.3634 -0.1308 -0.0387 0.6686c-0.0148,0.2568 0.0583,0.3389 0.315,0.3537 0.2357,0.0136 0.1493,-0.0314 0.4523,-0.0857 0.123,0.2089 0.2116,0.2087 0.1971,0.4587 -0.015,0.2609 -0.2107,0.4351 -0.4715,0.42 -0.2132,-0.0123 -0.0631,-0.2273 -0.4329,-0.2486 -0.2229,-0.0129 -0.4726,0.4373 -0.4909,0.7543 -0.0372,0.6434 0.157,0.6352 0.4795,0.9471 0.3084,0.2983 0.1702,0.4692 0.4205,0.8941 -0.1619,1.1421 -0.7228,4.6568 -1.4107,5.0621l-0.4082 -0.3781c-0.1653,0.1046 -0.5269,0.4359 -0.6013,0.4316 -0.2151,-0.0124 -0.1963,-0.0465 -0.3279,-0.1307l-0.3347 0.2205 -0.5698 -0.0492c-0.4979,0.6581 -1.0381,0.3582 -1.5292,1.4874 -0.3968,0.9121 0.1237,1.7465 -1.0172,1.9437l-0.0515 0.8915c-0.0178,0.3084 -0.1015,0.2631 -0.3537,0.3151l0.4128 0.3782c-0.0219,0.9864 0.953,1.1434 0.8944,2.1573 -0.0087,0.1509 -0.1241,0.0551 -0.2487,0.433 0.3205,-0.0555 0.197,-0.1004 0.4522,-0.0857 1.2964,0.0749 0.7009,0.935 1.2858,0.9688l0.1115 0.0065c0.3446,0.0199 0.5365,-0.7304 1.4939,-0.6964l-0.103 1.7831c-0.0106,0.1824 0.0474,0.3382 0.2035,0.3472 0.3108,0.018 0.3277,-0.2032 1.0115,-0.1698 0.406,0.0198 0.8255,0.049 1.2317,0.0772 1.7404,0.1205 0.3854,-1.1353 1.5912,-0.4686l0.5358 -0.5951 0.3943 -0.022c0.271,-0.8214 2.7103,-0.9565 2.5955,-0.4091l-0.1826 0.9938c0.1364,0.2117 0.2248,0.2115 0.2104,0.4614 -0.044,0.762 -0.2693,0.8831 0.2163,1.6044 0.267,0.3967 0.2466,0.213 0.6005,0.4165 0.4067,0.234 0.2541,0.501 0.4903,0.5147 1.2338,0.0713 0.6071,-0.3889 1.569,0.3995 0.2576,0.2112 1.0433,0.646 1.5001,0.6723 0.1189,0.202 0.3284,0.5781 0.6364,0.5959l0.1114 0.0064c0.3699,0.0214 0.2457,-0.2094 0.4587,-0.1971 0.3432,0.0198 1.1579,0.6778 1.4038,0.8639 -0.092,0.3119 -0.1224,0.1841 -0.1372,0.4393 -0.0065,0.1139 0.2088,0.2568 0.1842,0.6816l-0.0386 0.6687 -0.2228 -0.0129 0.3314 1.4552c0.4832,0.0152 1.1065,-0.8612 2.156,0.3936l0.0408 0.5316 0.2347 0.561c1.0312,1.4232 -0.3592,1.7907 -1.0997,3.6319 -0.0236,0.4088 0.3992,0.5627 0.2008,1.2636 -0.0265,0.4228 -0.0254,0.409 0.1861,1.0813l0.572 0.286 0.6452 0.2447 0.7775 0.0074 0.67 0.4242c0.5874,0.9971 0.7872,3.2719 1.0766,4.0307 0.2489,0.6526 -0.015,3.7365 -0.4249,4.2782 -0.2922,0.8728 -1.8612,1.2316 -2.284,1.7505 -0.3446,0.4229 -1.14,0.7319 -1.5262,1.2549 -0.2963,0.4013 -0.7605,0.8498 -0.7821,1.0025l0.6385 0.3889c0.0812,-0.1898 0.3502,0.8114 0.851,0.8824l0.3575 0.2891 0.7079 -0.4034c0.8442,-0.0233 0.3775,0.1326 0.357,0.4875 -0.0166,0.2866 0.5529,0.4403 0.7887,0.566 0.4706,0.2507 0.3596,0.457 0.6354,0.7026 0.2513,0.2439 1.111,0.5946 2.0006,-0.2381 1.4972,-1.2538 0.959,-0.8516 3.2292,-3.4338z"/>
  <path class="fil3" d="M68.2572 38.0518c0.0542,0.303 0.0992,0.2166 0.0856,0.4523 -0.0176,0.3051 -0.2438,0.3507 -0.2615,0.6558 -0.0364,0.6299 0.2395,0.3205 0.5248,0.6727l0.7675 0.1847c0.1097,-0.2557 0.8186,-0.3732 0.8246,-0.3728 0.1672,0.0812 0.2699,-0.0305 0.5385,0.0043 0.2211,-0.2588 0.1651,-0.3162 0.1787,-0.552 0.0169,-0.2925 0.7782,-0.5273 0.7966,-0.8454 0.0148,-0.2567 -0.0582,-0.3388 -0.315,-0.3536l-0.2242 -0.119c-0.5602,-0.2952 -0.9539,-0.2216 -1.255,-0.2287l-1.0841 0.1996c-0.2588,-0.015 -0.3497,0.1632 -0.5765,0.3021z"/>
  <path class="fil3" d="M66.4634 39.1425c0.5826,-0.0709 1.0518,-0.744 1.0657,-1.4069l-1.0657 1.4069z"/>
  <path class="fil3" d="M69.1101 37.1986l0.313 0.026c0.3084,0.0179 0.273,-0.0705 0.3537,-0.315l-0.7739 -0.047 0.1072 0.336z"/>
  <path class="fil3" d="M68.0471 37.8161l0.0258 -0.4458 -0.2229 -0.0129c0.0127,0.5003 -0.1338,0.1991 0.1971,0.4587z"/>
  <path class="fil0 str1" d="M63.038 3.038c33.1317,0 60.0002,26.8686 60.0002,59.9999 0,33.1318 -26.8685,60.0003 -60.0002,60.0003 -33.1314,0 -60,-26.8685 -60,-60.0003 0,-33.1313 26.8686,-59.9999 60,-59.9999zm-0.0002 16.056c24.2658,0 43.9444,19.6783 43.9444,43.9439 0,24.2658 -19.6786,43.9444 -43.9444,43.9444 -24.2655,0 -43.9438,-19.6786 -43.9438,-43.9444 0,-24.2656 19.6783,-43.9439 43.9438,-43.9439z"/>
  <path class="fil4" d="M7.228 53.6476l0.9411 -4.0763c0.2048,-0.887 0.569,-1.5036 1.0941,-1.8476 0.5233,-0.3443 1.1768,-0.427 1.9548,-0.2474 0.802,0.1851 1.373,0.57 1.7125,1.1564 0.3395,0.5864 0.3951,1.3738 0.1669,2.3625l-0.3098 1.3415 2.9456 0.6801 -0.5687 2.4631 -7.9365 -1.8323zm3.9521 -1.682l0.1386 -0.6006c0.1092,-0.4731 0.1043,-0.8226 -0.0158,-1.0527 -0.1205,-0.2283 -0.309,-0.3731 -0.564,-0.4319 -0.2495,-0.0576 -0.4812,-0.0235 -0.6914,0.1031 -0.2117,0.1243 -0.3706,0.4166 -0.4764,0.8748l-0.1613 0.6986 1.7703 0.4087zm6.1994 -8.6771l-1.0276 2.677 1.1139 0.8501 -0.9215 2.4008 -6.5074 -5.7766 0.9834 -2.562 8.7019 0.0597 -0.944 2.4592 -1.3987 -0.1082zm-1.8338 -0.1392l-3.0564 -0.2084 2.4128 1.8851 0.6436 -1.6767zm2.1105 -4.0274l1.1789 -2.0903c0.354,0.1687 0.66,0.2408 0.9185,0.2187 0.4172,-0.0365 0.7565,-0.2595 1.0188,-0.6634 0.1952,-0.3007 0.276,-0.5783 0.2408,-0.8341 -0.0361,-0.2541 -0.1473,-0.4416 -0.3334,-0.5624 -0.1765,-0.1147 -0.3852,-0.1416 -0.6264,-0.0766 -0.2411,0.0649 -0.6066,0.3386 -1.0983,0.8243 -0.8095,0.7904 -1.5133,1.2717 -2.1146,1.442 -0.6034,0.1735 -1.1715,0.0873 -1.7059,-0.2598 -0.3515,-0.2283 -0.6178,-0.546 -0.7973,-0.952 -0.1796,-0.406 -0.2262,-0.8704 -0.1405,-1.3959 0.0873,-0.5244 0.3618,-1.1421 0.8235,-1.8531 0.5671,-0.8732 1.1622,-1.4343 1.784,-1.6816 0.6219,-0.2474 1.3155,-0.1837 2.0801,0.1885l-1.176 2.0652c-0.341,-0.147 -0.6376,-0.1812 -0.8881,-0.1019 -0.2479,0.0787 -0.4697,0.2671 -0.6628,0.5645 -0.1601,0.2465 -0.229,0.464 -0.2047,0.6563 0.0228,0.1912 0.1099,0.3358 0.2593,0.4329 0.1082,0.0702 0.2383,0.0824 0.3918,0.0374 0.1558,-0.0414 0.3913,-0.223 0.712,-0.5461 0.7979,-0.7935 1.4285,-1.3224 1.8914,-1.5894 0.4628,-0.2669 0.9031,-0.3948 1.3231,-0.3799 0.4183,0.0139 0.8155,0.1406 1.1892,0.3833 0.4374,0.2841 0.7619,0.6689 0.9738,1.1503 0.2136,0.4825 0.2736,1.003 0.1814,1.5627 -0.0911,0.5582 -0.3521,1.1689 -0.7817,1.8305 -0.754,1.1611 -1.4993,1.8213 -2.2381,1.977 -0.7383,0.1583 -1.4703,0.0424 -2.1988,-0.3471zm0.5321 -10.5699l5.019 -5.7738 1.5186 1.3201 -1.6846 1.9379 4.6287 4.0237 -1.651 1.8993 -4.6287 -4.0237 -1.6835 1.9365 -1.5185 -1.32zm9.0371 -4.1625c-0.8,-1.0617 -1.1263,-2.1124 -0.9807,-3.1482 0.1459,-1.0385 0.7473,-1.9547 1.803,-2.7502 1.0829,-0.816 2.1366,-1.1541 3.1609,-1.0142 1.0218,0.1396 1.9296,0.733 2.7183,1.7796 0.573,0.7603 0.9144,1.4813 1.0248,2.1604 0.1105,0.6791 0.0262,1.3362 -0.2526,1.9713 -0.2804,0.6364 -0.7802,1.2243 -1.5026,1.7687 -0.733,0.5524 -1.4282,0.8935 -2.0857,1.0232 -0.6569,0.127 -1.3247,0.0508 -2.0058,-0.2291 -0.6796,-0.2811 -1.3066,-0.8012 -1.8796,-1.5615zm2.0183 -1.5066c0.4953,0.6573 0.9714,1.0371 1.4321,1.1411 0.4596,0.1025 0.9012,-0.0047 1.3207,-0.3208 0.4317,-0.3253 0.6603,-0.7184 0.6854,-1.1767 0.024,-0.4597 -0.2364,-1.0542 -0.7842,-1.7812 -0.4622,-0.6135 -0.9231,-0.9667 -1.3834,-1.0638 -0.4592,-0.0957 -0.9001,0.0157 -1.3241,0.3353 -0.4044,0.3047 -0.6228,0.6924 -0.6513,1.1651 -0.0297,0.4712 0.2061,1.0392 0.7048,1.701zm8.3272 -1.0305l-3.8239 -7.1918 3.7039 -1.9695c0.6865,-0.365 1.2435,-0.586 1.6683,-0.6594 0.4257,-0.076 0.8345,-0.0142 1.2273,0.1873 0.3919,0.1998 0.7089,0.5294 0.952,0.9866 0.2128,0.4002 0.3099,0.7889 0.2948,1.1685 -0.0167,0.3805 -0.1266,0.7395 -0.3268,1.078 -0.1303,0.2153 -0.3391,0.4488 -0.6298,0.6979 0.3118,-0.052 0.5515,-0.0656 0.7209,-0.0419 0.1116,0.0159 0.2972,0.0783 0.5553,0.1881 0.2591,0.1113 0.4412,0.2035 0.5492,0.2814l2.1835 1.5132 -2.5117 1.3354 -2.3562 -1.5673c-0.3012,-0.2028 -0.534,-0.3174 -0.6982,-0.3397 -0.2179,-0.0259 -0.4298,0.0159 -0.6324,0.1236l-0.196 0.1042 1.5519 2.9186 -2.2321 1.1868zm-0.0427 -5.465l0.9377 -0.4987c0.1005,-0.0534 0.2795,-0.1894 0.5361,-0.4096 0.1313,-0.1085 0.2119,-0.2479 0.2415,-0.4184 0.028,-0.1695 0.001,-0.3334 -0.0827,-0.4908 -0.1237,-0.2328 -0.2918,-0.3711 -0.5051,-0.4167 -0.2141,-0.0472 -0.5233,0.0378 -0.9285,0.2532l-0.9763 0.5191 0.7773 1.4619zm12.352 -1.2418l-2.7563 0.7904 -0.0086 1.4012 -2.472 0.7088 0.6972 -8.6735 2.6379 -0.7563 5.1893 6.9855 -2.5321 0.7261 -0.7554 -1.1822zm-0.9923 -1.5483l-1.6731 -2.5664 -0.0533 3.0614 1.7264 -0.495zm4.0876 -6.2375l2.4997 -0.3069 0.7481 6.093 3.8984 -0.4786 0.2445 1.9915 -6.3981 0.7856 -0.9926 -8.0846zm22.1968 0.3613l5.9831 1.7157 -0.4825 1.6826 -3.553 -1.0188 -0.3921 1.3672 3.0335 0.8699 -0.4532 1.5805 -3.0335 -0.8698 -0.9174 3.1993 -2.4301 -0.6968 2.2452 -7.8298zm9.1206 10.3392l-2.6196 -1.1663 -0.9072 1.0679 -2.3493 -1.046 6.1093 -6.1961 2.5069 1.1162 -0.515 8.6868 -2.4065 -1.0714 0.1814 -1.3911zm0.235 -1.8239l0.368 -3.0414 -2.0087 2.3108 1.6407 0.7306zm7.3788 -1.8938l2.7124 1.8992 -1.7953 4.7924 3.8847 -3.3293 2.7031 1.8927 -4.672 6.6722 -1.684 -1.1791 3.5625 -5.0877 -4.8689 4.1728 -1.524 -1.0671 2.2606 -5.9992 -3.5624 5.0877 -1.6887 -1.1824 4.672 -6.6722zm9.4829 7.2612l1.8448 1.7203 -5.5551 5.957 -1.8447 -1.7202 5.555 -5.9571zm3.907 3.8003l1.5849 1.9572 -4.7707 3.8633 2.4717 3.0524 -1.5594 1.2626 -4.0566 -5.0095 6.3301 -5.126zm4.9378 6.7285l1.4105 2.0911 -6.7528 4.5548 -1.4104 -2.0911 6.7527 -4.5548zm-1.0919 12.2653l-1.2119 -2.5988 -1.3853 0.2107 -1.0868 -2.3306 8.6757 -0.6682 1.1598 2.487 -6.0877 6.2182 -1.1133 -2.3874 1.0495 -0.9309zm1.3739 -1.2224l2.2731 -2.0539 -3.0321 0.4262 0.759 1.6277zm-1.2365 5.4133l7.9034 -1.9706 1.0148 4.0704c0.1881,0.7544 0.2678,1.3483 0.2363,1.7783 -0.0293,0.4315 -0.1882,0.8131 -0.4787,1.1455 -0.2886,0.3319 -0.6852,0.5598 -1.1875,0.685 -0.4399,0.1097 -0.8405,0.1099 -1.2052,0.0034 -0.3651,-0.1083 -0.6869,-0.3017 -0.9669,-0.5779 -0.1774,-0.1785 -0.3534,-0.4376 -0.5248,-0.7799 -0.025,0.3151 -0.0698,0.551 -0.1338,0.7097 -0.0424,0.1043 -0.1478,0.2694 -0.3168,0.4932 -0.1707,0.2244 -0.3042,0.3788 -0.4059,0.4649l-1.9964 1.7525 -0.6882 -2.7602 2.0908 -1.907c0.2696,-0.2432 0.4372,-0.4413 0.4985,-0.5954 0.0778,-0.2051 0.0885,-0.4208 0.033,-0.6434l-0.0537 -0.2154 -3.2073 0.7997 -0.6116 -2.4528zm5.3132 1.2806l0.2569 1.0305c0.0275,0.1104 0.1162,0.3169 0.2677,0.6193 0.0736,0.1537 0.1894,0.2654 0.3475,0.3355 0.1578,0.0681 0.3234,0.0816 0.4963,0.0385 0.2558,-0.0638 0.4307,-0.1933 0.5265,-0.3893 0.0976,-0.1963 0.09,-0.5169 -0.0211,-0.9622l-0.2674 -1.0728 -1.6064 0.4005z"/>
  <path class="fil4" d="M36.7797 103.241l4.0813 2.3564c0.68,0.3926 1.1046,0.8632 1.2732,1.4096 0.1702,0.5471 0.1117,1.0695 -0.1747,1.5655 -0.2409,0.4172 -0.5773,0.7004 -1.0094,0.8494 -0.2888,0.0982 -0.6328,0.1099 -1.0325,0.0324 0.4356,0.4135 0.6871,0.839 0.7562,1.2731 0.0665,0.4347 -0.0288,0.8768 -0.2877,1.3251 -0.2115,0.3664 -0.4866,0.6455 -0.8245,0.8402 -0.3396,0.1937 -0.7039,0.2899 -1.0981,0.2901 -0.243,-0.0002 -0.5635,-0.0823 -0.9606,-0.248 -0.528,-0.2195 -0.8722,-0.3744 -1.0331,-0.4673l-3.7627 -2.1724 4.0726 -7.0541zm0.6014 4.0371l0.9477 0.5471c0.34,0.1964 0.6105,0.2738 0.8126,0.2349 0.2013,-0.0414 0.3647,-0.1727 0.4917,-0.3927 0.1186,-0.2053 0.1458,-0.4042 0.0791,-0.596 -0.0674,-0.1944 -0.2657,-0.3856 -0.5958,-0.5761l-0.9625 -0.5557 -0.7728 1.3385zm-1.5996 2.7707l1.1119 0.642c0.376,0.2172 0.6784,0.3041 0.9079,0.2592 0.2313,-0.0438 0.4118,-0.1783 0.5417,-0.4033 0.1204,-0.2086 0.1416,-0.4197 0.0619,-0.6343 -0.0797,-0.2147 -0.3089,-0.4324 -0.6915,-0.6533l-1.107 -0.6391 -0.8249 1.4288zm8.3086 5.8838l2.3815 -7.7894 4.0116 1.2265c0.7436,0.2273 1.2937,0.4648 1.6461,0.7134 0.3547,0.2473 0.6,0.5801 0.7353,1.0002 0.1359,0.4184 0.127,0.8757 -0.0245,1.3708 -0.1325,0.4335 -0.3386,0.777 -0.6177,1.0347 -0.2809,0.2572 -0.6124,0.4335 -0.9934,0.5312 -0.2444,0.0601 -0.5571,0.0776 -0.9388,0.0482 0.2572,0.1836 0.4363,0.3436 0.5394,0.4802 0.0676,0.0901 0.1548,0.2654 0.2597,0.5255 0.1044,0.262 0.1679,0.4559 0.1893,0.5874l0.474 2.6139 -2.7204 -0.8316 -0.5578 -2.7745c-0.0696,-0.3564 -0.1531,-0.602 -0.2535,-0.7339 -0.1358,-0.1724 -0.3152,-0.2926 -0.5346,-0.3597l-0.2122 -0.0649 -0.9665 3.1611 -2.4175 -0.7391zm3.8342 -3.8947l1.0156 0.3106c0.1089,0.0332 0.3316,0.0637 0.6688,0.0894 0.1696,0.0161 0.3251,-0.0256 0.4666,-0.1251 0.1396,-0.1 0.2364,-0.235 0.2886,-0.4055 0.077,-0.2521 0.056,-0.4688 -0.0626,-0.6518 -0.118,-0.1848 -0.3967,-0.3434 -0.8356,-0.4775l-1.0573 -0.3233 -0.4841 1.5832zm13.4673 5.7697l-2.8566 -0.2499 -0.5101 1.3051 -2.5618 -0.2242 3.7592 -7.8474 2.7337 0.2391 2.3412 8.3813 -2.6241 -0.2296 -0.2815 -1.3744zm-0.3716 -1.801l-0.6422 -2.9956 -1.147 2.839 1.7892 0.1566zm6.9978 0.3638l2.3329 -0.5635c0.1179,0.374 0.2739,0.6469 0.4663,0.821 0.3113,0.2802 0.7057,0.3762 1.1801,0.2926 0.353,-0.0623 0.6111,-0.1925 0.7742,-0.3926 0.1612,-0.1999 0.2226,-0.4091 0.184,-0.6276 -0.0365,-0.2072 -0.1591,-0.3782 -0.3712,-0.5103 -0.2119,-0.1321 -0.6613,-0.2127 -1.3519,-0.2411 -1.1301,-0.053 -1.9622,-0.2395 -2.4968,-0.5631 -0.5384,-0.3229 -0.8627,-0.7972 -0.9734,-1.4248 -0.0728,-0.4127 -0.0221,-0.8241 0.1524,-1.2323 0.1745,-0.4082 0.4824,-0.7591 0.9252,-1.0548 0.4431,-0.2938 1.082,-0.5143 1.9169,-0.6615 1.0253,-0.1808 1.8415,-0.1283 2.4466,0.1579 0.605,0.2861 1.0314,0.8368 1.2807,1.6498l-2.3124 0.5483c-0.1252,-0.3496 -0.3023,-0.5898 -0.5312,-0.719 -0.2266,-0.1275 -0.5157,-0.1613 -0.8649,-0.0997 -0.2895,0.051 -0.4956,0.149 -0.6195,0.2979 -0.1243,0.1471 -0.1708,0.3094 -0.1399,0.4849 0.0225,0.127 0.1023,0.2304 0.2399,0.312 0.1365,0.0858 0.43,0.1341 0.8851,0.1483 1.1244,0.0424 1.9413,0.1429 2.4521,0.2994 0.511,0.1564 0.9049,0.3912 1.1803,0.7085 0.2751,0.3154 0.4533,0.6923 0.5307,1.1312 0.0906,0.5136 0.0304,1.0134 -0.1771,1.4967 -0.2072,0.4852 -0.547,0.884 -1.0193,1.1984 -0.4703,0.314 -1.0949,0.5397 -1.8718,0.6766 -1.3634,0.2405 -2.3545,0.1457 -2.9722,-0.2885 -0.6192,-0.432 -1.0337,-1.0463 -1.2458,-1.8447zm10.0945 -7.7862l2.3849 -0.8212 2.6518 7.7015 -2.3849 0.8212 -2.6518 -7.7015zm6.0721 -2.4235l2.1811 -1.2592 3.0694 5.3164 3.4014 -1.9638 1.0033 1.7376 -5.5825 3.223 -4.0727 -7.054z"/>
  <path class="fil5" d="M26.5048 87.8349l73.0664 0c-7.8819,11.54 -21.294,19.1407 -36.5141,19.1471l-0.0385 0c-15.22,-0.0064 -28.632,-7.6071 -36.5138,-19.1471z"/>
  <path class="fil6" d="M43.6019 43.5325c0.0606,0.6466 -0.0241,0.5346 0.2048,1.4568 0.0299,0.3655 -0.0462,0.4687 0.6147,0.8452l0 0.6916c0,1.4044 -0.0074,0.9018 -1.0758,1.6904 -0.6051,0.4467 -1.14,0.7067 -1.819,1.101 -0.8255,0.4794 -1.1363,0.4564 -1.3501,1.5697 -0.3738,0.6156 -0.6116,1.6082 -0.6503,2.1924 0,0.8003 -0.049,1.4885 -0.0985,2.2071 -0.046,0.6668 -0.2314,1.2488 -0.2314,2.1507l0 2.5357c0,0.7507 0.0897,2.096 0.3585,2.5394l0.4099 3.0699 0 0.6148c-0.836,0.177 -1.1663,-0.4722 -1.7674,-0.5379l0.0184 -0.1264 0.4427 -0.2578c0,-0.5529 -0.8493,-2.2707 -1.0761,-2.766 -0.3414,-0.7457 -0.5685,-2.7266 -1.5387,-2.7541l0 0 -0.6529 -0.1269 0 0c-1.2611,-0.028 -1.2659,-0.5673 -1.2659,-1.6528l0.0712 0.0406 0.313 -0.6554 0.2305 0c0.0353,-0.4246 0.2305,-0.6701 0.2305,-1.0757l0 -1.46c0,-1.047 -0.6301,-1.9978 -1.6904,-1.9978l-0.8453 0c-1.0936,0 -1.921,0.8377 -1.921,1.921l0 0.9989c0,0.2322 0.1975,1.2596 0.277,1.4135 0.0426,0.0823 0.7988,0.6516 0.7988,0.9685 0,1.4805 -2.9243,1.5883 -2.9968,2.4589l0 0c-0.2254,0.9674 -0.9989,1.8258 -0.9989,2.9968 -0.2617,0.1056 -0.528,0.9204 -0.6433,1.2011 -0.1313,0.3197 0.054,1.0098 -0.1331,1.5572 -0.3517,1.0291 -0.089,2.1936 -0.6811,3.0818l-0.3867 3.3807c-0.0686,0.685 0.7035,2.2284 1.2295,2.2284l0.1536 0c0.6576,0 0,-2.7034 0,-2.9968 0,-0.6469 0.453,-1.0065 0.464,-1.9181 0.008,-0.6655 -0.0005,-1.7979 0.4092,-2.0787l0.2799 6.53 -0.1496 5.4519 0.687 0.4673c0,3.1233 0.3272,5.6697 -2.382,6.3009 -0.02,0.2404 -0.0769,0.273 -0.0769,0.5379l0 0.7684 4.1843 -0.0302 0.2868 -0.399 0.0625 0.045 0.0464 -0.2353 -0.2769 -2.6078 0 -0.9989c0,-1.357 0.0169,-2.9789 0.8469,-3.4706l0.5711 -3.1275 0.1188 -0.548c0.1649,0.2373 0.421,2.6705 0.8452,3.3041 0,1.8149 0.7095,3.9361 -0.1581,5.2249l0.0044 1.076c-0.0928,0.1387 -0.1536,0.135 -0.1536,0.3073l0 0.7684c0,0.4698 0.9,0.6916 1.4599,0.6916l0.6202 0.044 1.8387 -0.2745 0 -0.3842c0,-0.562 -0.4156,-0.8881 -0.7127,-1.2084 -0.31,-0.3343 -0.3575,-1.1737 -0.7472,-1.1737l-0.2306 0c-0.0434,-0.1866 -0.1536,-0.4993 -0.1536,-0.6915 0,-0.8525 0.2598,-1.9605 0.3681,-2.7056 0.0777,-0.5351 0.0087,-0.9342 0.3089,-1.2278 0.198,-0.1937 0.9366,-0.2478 0.9366,-0.677l0 -0.3074c0,-0.8129 -0.3655,-1.6335 -0.2142,-2.5962 0.1161,-0.7389 0.1374,-1.9036 0.1374,-2.7826l0.0367 -0.8493 -0.2561 -2.6946 -0.2445 -0.2192 -0.074 -3.9978c0.5354,0.3586 0.214,0.3509 0.9609,0.6528 0.5204,0.2104 0.7554,0.1632 1.2976,0.316 1.2061,0.3399 1.7256,-0.1746 2.4287,0.8754 0,2.3602 0.1351,5.6299 0.2285,8.3777 0.0455,1.3404 0.1588,2.7303 0.1557,4.301 -0.0025,1.2817 0.3074,2.789 0.3213,4.1948l0.4471 0.185c-0.0254,0.3053 -0.6371,0.9409 -0.8421,1.0789 -0.4236,0.2853 -0.6947,0.4632 -0.6947,1.2263l-0.1732 0.0032 0.0981 0.5526 1.1509 -0.0947c0.547,-0.0513 0.8008,0.1395 1.2918,0.063 0.243,-0.0379 0.9233,-0.224 1.0134,-0.4472l0.2305 0c0.1797,0 0.2281,-0.1584 0.5379,-0.2306l0 -0.3073c0,-0.3419 0.264,-0.9095 0.2447,-1.1546l-0.091 -0.7664c0.6317,-0.9435 0.3073,-2.6955 0.3073,-4.1494l-0.0377 -0.1566 0.2683 -3.6854 0 -0.3842c0,-1.3061 -0.1302,-2.2858 0.1067,-3.6585 0.1205,-0.6985 0.3089,-3.1524 0.6617,-3.4108 0.0183,0.8217 0.3457,2.0859 0.3871,3.1475 0.0346,0.8884 0.193,2.686 0.09,3.3237 -0.1361,0.8427 0.1045,2.2852 0.1405,3.2077 0.0482,1.2342 0.1508,2.2498 0.1508,3.4608l0.0305 0.3101 -0.1842 2.0719 -0.1537 0c0,0.4989 0.3074,0.9214 0.3074,0.9221 0,0.5074 -0.1766,0.8188 0.0333,1.196 0.1087,0.1953 0.4312,0.725 0.6582,0.725l2.1516 0c0.2947,0 0.5378,-0.2217 0.5378,-0.461l0 -0.0769c0,-0.5198 -0.922,-1.4142 -0.922,-1.6136l0 -0.0769c0,-0.081 0.6659,-2.1689 0.7775,-2.5266 0.2778,-0.8906 0.1692,-2.1094 0.2078,-3.0066l0.5515 -10.5264 0 -1.4599c0,-0.719 -0.0956,-1.2966 -0.0194,-1.8577 0.0977,-0.7187 0.1758,-1.4834 0.0791,-2.1209 -0.1198,-0.789 -0.4149,-3.6247 -0.3697,-4.3972l0.2331 -3.4576c0.0839,0.1207 0.8453,2.5768 0.8453,2.7662l0.0903 0.2782 0.2827 1.1142 0.0904 0.2489 0.5355 1.4323c-0.2005,0.2307 -0.4611,0.4172 -0.4611,0.8453 0,0.6179 0.2764,1.3714 0.5085,1.7967 0.3264,0.5984 0.8636,0.7286 1.182,1.1233 0.1965,0.2436 0.3511,0.2364 0.595,0.5575 0.1894,0.2494 0.3323,0.4014 0.5644,0.5882 0.4058,0.3267 0.7925,0.7752 1.53,0.7752 0.2498,0 0.0581,-0.0666 0.4402,-0.1512l-0.056 2.3027c0,0.7801 -0.3588,2.4937 -0.6873,2.9972 -0.1395,0.6501 -0.213,1.2051 -0.2347,1.8438l0 0.6147c0.7149,0.1909 1.0182,0.3772 1.4502,0.9226l-0.0671 3.9183 0 0.3074c0,1.7546 0.8452,2.9811 0.8452,4.303l0 0.1537c0,0.8304 -0.6409,1.633 -0.6104,1.8436l0.0725 0.9995 2.038 -0.0157 0.2576 -0.6031 0.077 -0.0287 0.24 0.6475 2.0747 0c0.0377,-0.4526 0.1537,-0.1603 0.1537,-0.461 0,-0.6054 -0.0217,-0.6346 -0.4104,-0.8191 -0.1191,-0.0564 -0.509,-0.599 -0.5886,-0.7178l0.0861 -0.0381 -0.3763 -0.8487 -0.094 0.0416c0.1889,-0.282 0.7393,-3.0376 0.83,-3.5499 0.1165,-0.6577 0.0105,-1.3329 0.1106,-1.8857 0.1042,-0.5759 0.0584,-1.4671 0.0992,-2.1601l0.2665 -1.0872 0.5379 0c0.4288,0 0.5101,-0.2947 0.8453,-0.3842 0,-0.6027 -0.2858,-1.3233 -0.3074,-2.0747 -0.0184,-0.6396 -0.2285,-1.4352 -0.3019,-2.0802 -0.0563,-0.4951 -0.1435,-1.8829 -0.1034,-2.1613 0.1006,-0.6988 0.2516,-1.4803 0.2786,-2.2326l0.5877 0.8648c2.3068,0 2.5618,-1.9211 5.5325,-1.9211 0.3941,-0.5884 1.1176,-2.7934 1.372,-3.6226 0.1872,-0.6103 0.568,-1.1032 0.8311,-1.7046 0.1164,-0.266 0.7212,-1.4298 0.8705,-1.6652 0,0.4603 -0.1313,1.6302 -0.2112,2.0171 -0.1525,0.7372 -0.0739,1.311 -0.1874,2.041 -0.1155,0.7427 -0.2975,0.8483 -0.2921,1.9362 0.0033,0.6639 -0.0777,1.4335 -0.0777,2.2276 0,1.0471 0.0053,3.431 -0.1374,4.3195 -0.0808,0.5031 -0.0122,1.3231 -0.0908,1.9837 -0.0658,0.5536 -0.3096,1.5306 -0.3096,1.9955 0,0.176 0.026,0.0894 0.083,0.2802l1.5306 0.3346 0 1.0757c0,0.7472 0.3113,2.4621 0.4926,3.1189 0.0444,0.1607 0.2735,1.4718 0.2759,1.5683 0.0098,0.3885 0.106,0.4672 0.08,0.8448 -0.0235,0.3426 -0.1569,0.3879 -0.1569,0.7689l0 0.3074c0,0.557 0.1618,0.8345 -0.022,1.2842 -0.1269,0.3105 -0.3622,0.7609 -0.3622,1.0978l0 0.9221c0,0.2075 0.0367,0.2119 0.0768,0.3842l2.1652 0.0015 0.14 -1.5383 -0.053 -0.0822 0.1299 -1.2241 0 -0.5379c0,-0.4983 -0.4652,-1.3852 -0.3731,-1.7765l-0.1648 -0.2213c0,-1.1383 0.0955,-1.8474 0.2881,-2.9392 0.1485,-0.8418 0.4034,-2.1383 0.4034,-2.9775l0.7684 0c0.3556,0 0.4071,2.2866 0.4766,2.7507 0.1369,0.9143 0.2918,1.9117 0.2918,3.0123l0 0.2305c0,0.9227 -0.5484,1.8194 -0.4039,2.4776 0.1938,0.8832 -0.4254,1.7376 0.0831,2.5135l-0.0634 0.3109 2.1071 -0.0075 0.1213 -0.6841 0 -0.8452c0,-0.4228 -0.2305,-0.6901 -0.2305,-1.0758 0,-0.3238 0.1537,-0.3673 0.1537,-0.7684l0 -0.1536c0,-0.0261 -0.3842,-0.5909 -0.3842,-1.2295 0,-0.0418 0.4848,-3.1742 0.5118,-3.2533 0.2541,-0.7467 0.4661,-2.4148 0.4871,-3.3549l0.2305 0c0.4057,0 0.9046,-0.295 1.1994,-0.4627l-0.2005 -6.8372 0 -0.461c0,-1.229 0.0933,-2.2623 0.0739,-3.6086 -0.0232,-1.6152 -0.3044,-2.4818 -0.2932,-3.931l-0.1649 -0.2213 0 -0.6147c0.0684,0.0501 1.3984,3.0611 1.5251,3.3927 0.0045,0.0117 0.4149,0.7649 0.4356,0.7938 0.0988,0.1383 0.3749,0.6498 0.4341,0.7955 0.5285,1.302 -0.1664,0.9678 -0.1664,1.8568 0,0.5209 0.393,0.8777 0.7411,1.1033 0.373,0.2418 1.1049,-0.0275 1.4873,-0.0275l0.2305 0 0 -0.6148c0,-0.5223 -0.5379,-0.8055 -0.5379,-1.4599 0,-0.2369 1.0307,-1.8853 1.46,-1.921 0.0688,-0.2956 0.3293,-0.5447 0.5093,-0.8738 0.0891,-0.1631 0.2335,-0.8227 0.325,-1.0582 0.1093,-0.2814 0.9785,-1.4788 1.2213,-1.5991l-0.0578 0.7648c-0.0342,0.5557 0.0705,0.8569 -0.0707,1.5429 -0.1343,0.6528 -0.182,0.841 -0.2361,1.6081 -0.0699,0.989 -0.1563,2.4455 -0.1543,3.4572 0.0026,1.2121 -0.1536,2.212 -0.1536,3.4579 0,1.2833 0.0818,1.9863 0.0769,3.2272 -0.0084,2.1156 -0.0971,4.6419 0.2142,6.7014 0.301,1.9916 0.3382,4.8868 -1.4437,5.3626l-0.3114 0.504 0.1241 0.4727 3.184 0.0222c0.3768,0 0.4191,-0.1253 0.6971,-0.1009l0.8611 -0.1449 0.4559 -1.3684 -0.093 -3.5341 0.0299 -0.4599 0.2663 -7.3102 0.1584 -0.2215 0.0064 -1.1524c0.0119,-0.309 0.1263,-0.3621 0.1537,-0.6915 0.3629,0.2658 0.7661,5.4857 0.7665,6.5332 0.0005,1.3495 0.3408,1.9811 0.4713,3.0634 0.0997,0.827 0.6717,1.9795 0.5979,3.0815l-0.0684 1.1531 0 1.1526 3.7221 -0.0568 0.0767 -0.7773c0.0348,-0.2789 -0.2295,-0.473 -0.4178,-0.549 0,-0.4748 -0.1132,-0.9621 -0.2202,-1.3167 -0.1415,-0.4695 -0.1005,-0.7158 -0.1582,-1.2247 -0.1216,-1.0724 -0.2363,-1.7411 -0.2363,-2.7606l-0.022 -0.9989 0.022 -0.8453c0,-1.117 -0.041,-2.2306 -0.0798,-3.2243 -0.0212,-0.5426 0.0034,-1.1437 0.0029,-1.6934 -0.0007,-0.8056 0.2305,-1.1552 0.2305,-1.46l0.0337 -4.1508 -0.2641 -6.1459 0.3606 0.2418 0.6382 1.2951c0,0.6549 0.2119,1.2512 0.5059,1.6457 0.2333,0.3132 0.743,1.045 0.9673,1.2256l0.2778 0.6278 0.0932 -0.0413 0 0.2306c0,0.1995 0.3878,0.6274 0.3843,1.5367 -0.003,0.7879 0.0633,1.1648 0.079,1.7632l0.3051 0.1579c0,0.3284 -0.0143,0.6915 0.3074,0.6915l0.1536 0c0.2821,0 0.1986,-0.2606 0.3842,-0.5379 0,-0.6674 0.2306,-0.6084 0.2306,-1.1526l0 -0.5379c0,-1.3728 -0.6148,-2.1764 -0.6036,-3.1596l-0.1648 -0.2213c0,-1.2781 -0.4733,-2.07 -0.9096,-2.9325 -0.309,-0.6107 -0.8851,-2.1933 -0.9935,-2.9253 -0.0903,-0.6096 -0.4668,-2.7418 -0.6407,-3.2013 -0.1179,-0.3113 -0.2869,-1.2184 -0.3568,-1.5642 -0.1497,-0.7399 -0.6883,-0.9354 -0.7878,-1.2101l-0.2305 0c-0.1113,0 -0.888,-0.6147 -1.4456,-0.6202l-0.0912 -0.225c-0.5916,-0.0132 -1.5368,-0.7729 -1.5368,-1.3063l0 -0.0769c0,-1.1604 0.6916,-1.6793 0.6916,-2.843 0,-0.8162 -0.0622,-1.4938 -0.3835,-1.9986 -0.1806,-0.2837 -1.0715,-0.9982 -1.4607,-0.9982l-0.9221 0c-0.7254,0 -0.6541,0.353 -1.0378,0.6527 -0.249,0.1944 -0.2939,0.0941 -0.427,0.4182 -0.0303,0.0739 -0.2257,0.6631 -0.2257,0.6964l0 1.8442c0,0.5757 0.8453,1.9255 0.8453,2.3052l0 0.3842c0,0.8315 -1.7556,1.0798 -1.921,1.5368 -2.1863,0 -1.4749,1.5253 -2.1516,2.5357 0,0.8395 -0.2733,1.2287 -0.4304,1.9516 -0.064,0.2944 -0.0852,0.8603 -0.1571,1.0724 -0.1228,0.3622 -0.3046,0.5584 -0.3963,0.8331 -0.2004,0.5999 -0.4301,1.1476 -0.7692,1.6128 -0.2106,0.289 -0.6702,1.325 -0.7058,1.7531 -0.2678,-0.3854 -0.6148,-2.6811 -0.6148,-3.381 -0.5749,-0.8585 -1.0084,-6.0788 -0.9992,-7.7605 0.0094,-1.7182 -0.2314,-2.3979 -1.3684,-3.0115 -0.704,-0.38 -0.6847,-0.1848 -1.4173,-0.7342 -0.4409,-0.3308 -0.9915,-0.5013 -1.2865,-0.9419 1.428,-0.9563 1.0281,-1.8668 0.4894,-3.4862 -0.2325,-0.6988 -0.3584,-1.2468 -0.8959,-1.6398 -0.4256,-0.3111 -0.981,-0.8675 -1.6682,-0.8675l-0.3842 0c-0.9192,0 -1.2133,0.5284 -1.4842,1.2052 -0.1666,0.4162 -0.5905,1.6269 -0.5905,2.0989 0,0.741 0.3074,1.2206 0.3074,1.8442l0 0.461c-0.0716,0.2661 -0.2253,0.177 -0.2253,0.324 0,0.4217 0.5761,0.5119 0.9937,0.5212 -1.1107,0.9655 -3.4336,0.6328 -3.4608,2.8402 -0.027,2.1964 -0.3044,3.8562 -0.3044,5.9196 -0.6266,0.9358 -0.5016,1.3174 -0.8705,2.4337 -0.1343,0.4065 -0.5895,2.3221 -0.5895,2.7146 -0.1545,0.2308 -0.1485,0.3708 -0.2779,0.5674 -0.1313,0.1995 -0.2624,0.1672 -0.473,0.3722 -0.5512,0.5365 -0.6322,0.1492 -0.6231,1.1519l-2.9516 1.527 -0.3823 -1.2693 0.2512 -0.1208c-0.0139,-0.6238 -0.5457,-2.4289 -0.8307,-2.7808 -0.6616,-0.8171 -0.899,-1.3395 -1.0903,-2.598 -0.2619,-1.7237 -0.7032,-4.7641 -2.6126,-4.7641l-0.6915 0c-0.4238,0 -0.9818,0.4563 -1.121,0.8768 -0.2043,0.6171 -0.3489,0.8334 -0.5089,1.489 -0.0906,0.3713 -0.4448,3.1623 -0.4797,3.5407l-0.1188 0.5481c-0.8936,0.4728 -1.0361,0.6353 -1.3392,1.7344 -0.1706,0.6188 -0.3806,1.9205 -0.4281,2.4918l-0.3842 0c-0.0856,0 -0.5379,-0.3334 -0.5379,-0.3842 0,-0.5068 0.2245,-0.7877 0.2001,-0.9998l0.0304 -0.537 0 -0.2306c0,-1.0332 -0.6304,-1.206 -0.8975,-2.0282 -0.0616,-0.1893 -0.1022,-1.9675 -0.2089,-2.5515 -0.1494,-0.8176 -0.2217,-1.7089 -0.3872,-2.5328 -0.1742,-0.8677 -0.1276,-1.8367 -0.2574,-2.6625 -0.0765,-0.4866 0.0529,-0.9565 -0.0803,-1.3796 -0.1264,-0.4011 -0.2243,-0.6661 -0.3512,-1.1088 -0.2831,-0.9881 -0.1927,-1.3814 -0.9972,-1.9227 -0.7457,-0.5016 -3.6591,-1.2666 -3.6591,-2.1808l0 -0.9221c0,-0.4579 0.3714,-0.3812 0.5103,-1.0266 0.057,-0.2651 0.1813,-1.1379 0.1813,-1.3554 0,-0.7965 -0.255,-1.867 -0.6325,-2.2874 -0.3054,-0.34 -1.3935,-1.0154 -1.9184,-0.882 -0.8716,0.2215 -1.5046,0.3546 -1.9704,0.9533 -0.1433,0.1843 -0.4178,0.775 -0.4618,1.0019 -0.0931,0.4808 -0.0626,0.6572 -0.0626,0.91z"/>
 </g>
</svg>
